<svg width="24" height="24" viewBox="0 0 24 24" fill="none" xmlns="http://www.w3.org/2000/svg">
<path d="M4.37862 2.97534H6.77862L6.41514 5.35551H4.01514L4.37862 2.97534Z" fill="#F5BB00"/>
<path d="M7.76156 2.97631L9.40254 2.97572V2.97534H14.0025C16.4326 2.97534 18.4025 4.929 18.4025 7.33898C18.4025 8.35325 18.0536 9.28671 17.4683 10.0277C18.9564 10.7274 19.9855 12.231 19.9855 13.9728C19.9855 16.3828 18.0156 18.3365 15.5855 18.3365H9.7222L10.6469 15.9563H15.4727C16.5772 15.9563 17.4727 15.0682 17.4727 13.9728C17.4727 12.8774 16.5772 11.9893 15.4727 11.9893H12.1881L13.2243 9.32245H13.9336C15.0382 9.32245 15.9336 8.43441 15.9336 7.33898C15.9336 6.24353 15.0382 5.35551 13.9336 5.35551H10.1305L9.53274 9.32245H12.2243L7.75094 20.8365L9.10036 11.9031L6.41528 11.9024L7.76156 2.97631Z" fill="#F5BB00"/>
<path d="M7.49128 15.9539H5.09128L4.72778 18.334H7.12778L7.49128 15.9539Z" fill="#F5BB00"/>
</svg>
