<svg width="24" height="24" viewBox="0 0 24 24" fill="none" xmlns="http://www.w3.org/2000/svg">
<path d="M4.37862 2.97534H6.77862L6.41514 5.35551H4.01514L4.37862 2.97534Z" fill="#F5BB00"/>
<path d="M7.76156 2.97631L9.40254 2.97572V2.97534H14.0025C16.4326 2.97534 18.4025 4.929 18.4025 7.33898C18.4025 8.35325 18.0536 9.28671 17.4683 10.0277C18.9564 10.7274 19.9855 12.231 19.9855 13.9728C19.9855 16.3828 18.0156 18.3365 15.5855 18.3365H9.7222L10.6469 15.9563H15.4727C16.5772 15.9563 17.4727 15.0682 17.4727 13.9728C17.4727 12.8774 16.5772 11.9893 15.4727 11.9893H12.1881L13.2243 9.32245H13.9336C15.0382 9.32245 15.9336 8.43441 15.9336 7.33898C15.9336 6.24353 15.0382 5.35551 13.9336 5.35551H10.1305L9.53274 9.32245H12.2243L7.75094 20.8365L9.10036 11.9031L6.41528 11.9024L7.76156 2.97631Z" fill="#F5BB00"/>
<path d="M7.49128 15.9539H5.09128L4.72778 18.334H7.12778L7.49128 15.9539Z" fill="#F5BB00"/>
<path d="M23.8501 6.20962C23.1823 8.88822 20.4692 10.5182 17.7903 9.85041C15.1126 9.18259 13.4825 6.46947 14.1504 3.79103C14.8179 1.11212 17.5309 -0.518188 20.209 0.149624C22.8878 0.817437 24.5178 3.53087 23.85 6.20962H23.8501Z" fill="#F7931A"/>
<path d="M19.2429 2.78516L19.0935 3.38477C19.1932 3.40753 19.2938 3.42976 19.3914 3.4541L19.5398 2.85938L19.9119 2.95215L19.7595 3.56348C20.2 3.71521 20.5295 3.93781 20.5134 4.33691L20.5056 4.41895C20.4568 4.74918 20.274 4.90946 20.031 4.96582C20.3646 5.13972 20.5344 5.40639 20.3728 5.86816C20.1722 6.4419 19.6947 6.49108 19.0603 6.37109L18.906 6.98828L18.5339 6.89551L18.6853 6.28613C18.589 6.26221 18.4907 6.2365 18.3894 6.20898L18.2371 6.82129L17.865 6.72852L18.0193 6.10938C17.9325 6.08712 17.8438 6.06359 17.7537 6.04102L17.2693 5.9209L17.4539 5.49414C17.4539 5.49414 17.7151 5.56414 17.7244 5.5625C17.8297 5.58858 17.8768 5.51942 17.8953 5.47363L18.1384 4.49805L18.1775 4.50781C18.1629 4.50197 18.1497 4.49775 18.1394 4.49512L18.3123 3.79883C18.3169 3.71976 18.2901 3.61966 18.1394 3.58203C18.1352 3.57609 17.8689 3.51562 17.8689 3.51562L17.9685 3.11719L18.4812 3.24609V3.24805C18.5582 3.26719 18.6377 3.2853 18.7185 3.30371L18.8708 2.69238L19.2429 2.78516ZM18.5095 5.76074C18.7619 5.82349 19.5399 6.07348 19.655 5.61133H19.656C19.7754 5.12982 18.9672 5.00536 18.7146 4.94238L18.5095 5.76074ZM18.8074 4.56738C19.0176 4.61975 19.6653 4.8325 19.7703 4.41211C19.8792 3.97387 19.2031 3.87657 18.9929 3.82422L18.8074 4.56738Z" fill="white"/>
</svg>
