<svg width="40" height="40" viewBox="0 0 40 40" fill="none" xmlns="http://www.w3.org/2000/svg">
<path d="M7.5 17.5C7.5 16.1193 6.38071 15 5 15C3.61929 15 2.5 16.1193 2.5 17.5V25C2.5 26.3807 3.61929 27.5 5 27.5C6.38071 27.5 7.5 26.3807 7.5 25V17.5Z" fill="#76AC36"/>
<path d="M37.5 17.5C37.5 16.1193 36.3807 15 35 15C33.6193 15 32.5 16.1193 32.5 17.5V25C32.5 26.3807 33.6193 27.5 35 27.5C36.3807 27.5 37.5 26.3807 37.5 25V17.5Z" fill="#76AC36"/>
<path d="M10 15H30V30H10V15ZM12.5 30H17.5V35C17.5 35.663 17.2366 36.2989 16.7678 36.7678C16.2989 37.2366 15.663 37.5 15 37.5C14.337 37.5 13.7011 37.2366 13.2322 36.7678C12.7634 36.2989 12.5 35.663 12.5 35V30ZM22.5 30H27.5V35C27.5 35.663 27.2366 36.2989 26.7678 36.7678C26.2989 37.2366 25.663 37.5 25 37.5C24.337 37.5 23.7011 37.2366 23.2322 36.7678C22.7634 36.2989 22.5 35.663 22.5 35V30ZM26.9313 5.30125L29.5813 2.65125C29.809 2.41549 29.9349 2.09974 29.9321 1.772C29.9292 1.44425 29.7978 1.13073 29.566 0.898973C29.3343 0.667213 29.0207 0.535752 28.693 0.532904C28.3653 0.530056 28.0495 0.656049 27.8138 0.883747L24.9062 3.79125C23.4097 2.94444 21.7195 2.49939 20 2.49939C18.2805 2.49939 16.5903 2.94444 15.0938 3.79125L12.1875 0.883747C12.0722 0.764359 11.9343 0.669131 11.7818 0.60362C11.6293 0.538108 11.4652 0.503626 11.2993 0.502183C11.1333 0.500741 10.9687 0.532368 10.8151 0.595219C10.6614 0.65807 10.5219 0.750887 10.4045 0.868253C10.2871 0.985619 10.1943 1.12518 10.1315 1.2788C10.0686 1.43242 10.037 1.59702 10.0384 1.763C10.0399 1.92897 10.0744 2.093 10.1399 2.2455C10.2054 2.39801 10.3006 2.53594 10.42 2.65125L13.07 5.30125C12.0988 6.23179 11.3262 7.34934 10.7985 8.58655C10.2709 9.82375 9.99928 11.155 10 12.5H30C30.0009 11.1551 29.7294 9.8239 29.202 8.5867C28.6746 7.3495 27.9022 6.23189 26.9313 5.30125ZM17.5 10H15V7.5H17.5V10ZM25 10H22.5V7.5H25V10Z" fill="#76AC36"/>
</svg>
