<svg width="16" height="16" viewBox="0 0 16 16" fill="none" xmlns="http://www.w3.org/2000/svg">
<path d="M14.6667 5.66536C14.6667 8.0587 12.7267 9.9987 10.3333 9.9987C10.22 9.9987 10.1 9.99204 9.98667 9.98537C9.82001 7.87204 8.12666 6.17869 6.01333 6.01202C6.00666 5.89869 6 5.7787 6 5.66536C6 3.27203 7.94 1.33203 10.3333 1.33203C12.7267 1.33203 14.6667 3.27203 14.6667 5.66536Z" stroke="#858FA5" stroke-linecap="round" stroke-linejoin="round"/>
<path d="M9.9987 10.3333C9.9987 12.7267 8.0587 14.6667 5.66536 14.6667C3.27203 14.6667 1.33203 12.7267 1.33203 10.3333C1.33203 7.94 3.27203 6 5.66536 6C5.7787 6 5.89869 6.00666 6.01202 6.01333C8.12536 6.17999 9.81871 7.87334 9.98537 9.98667C9.99204 10.1 9.9987 10.22 9.9987 10.3333Z" stroke="#858FA5" stroke-linecap="round" stroke-linejoin="round"/>
<path d="M5.08 9.74797L5.66667 8.66797L6.25334 9.74797L7.33333 10.3346L6.25334 10.9213L5.66667 12.0013L5.08 10.9213L4 10.3346L5.08 9.74797Z" stroke="#858FA5" stroke-linecap="round" stroke-linejoin="round"/>
</svg>
