<svg width="48" height="48" viewBox="0 0 48 48" fill="none" xmlns="http://www.w3.org/2000/svg">
<circle cx="24" cy="24" r="24" fill="#F3F4F6"/>
<circle cx="24" cy="24" r="20" fill="#C2C7D2"/>
<path fillRule="evenodd" clipRule="evenodd" d="M12 17.5992C12 16.9627 12.2529 16.3522 12.7029 15.9022C13.153 15.4521 13.7635 15.1992 14.4 15.1992H33.6C34.2365 15.1992 34.847 15.4521 35.2971 15.9022C35.7471 16.3522 36 16.9627 36 17.5992V30.3992C36 31.0357 35.7471 31.6462 35.2971 32.0963C34.847 32.5464 34.2365 32.7992 33.6 32.7992H14.4C13.7635 32.7992 13.153 32.5464 12.7029 32.0963C12.2529 31.6462 12 31.0357 12 30.3992V17.5992ZM16.8 21.5992C16.8 20.7505 17.1371 19.9366 17.7373 19.3365C18.3374 18.7364 19.1513 18.3992 20 18.3992C20.8487 18.3992 21.6626 18.7364 22.2627 19.3365C22.8629 19.9366 23.2 20.7505 23.2 21.5992C23.2 22.4479 22.8629 23.2618 22.2627 23.862C21.6626 24.4621 20.8487 24.7992 20 24.7992C19.1513 24.7992 18.3374 24.4621 17.7373 23.862C17.1371 23.2618 16.8 22.4479 16.8 21.5992ZM31.2 21.5992H26.4V19.9992H31.2V21.5992ZM31.2 26.3992H26.4V24.7992H31.2V26.3992ZM20 26.3992C19.1303 26.3992 18.2777 26.6414 17.5379 27.0986C16.7981 27.5559 16.2002 28.2101 15.8112 28.988L15.2832 30.0408C15.222 30.1629 15.1931 30.2986 15.1992 30.435C15.2053 30.5715 15.2463 30.7041 15.3181 30.8202C15.39 30.9363 15.4904 31.0321 15.6097 31.0984C15.7291 31.1648 15.8634 31.1995 16 31.1992H24C24.1364 31.1992 24.2706 31.1643 24.3897 31.0979C24.5089 31.0314 24.609 30.9356 24.6807 30.8195C24.7524 30.7034 24.7931 30.5709 24.7992 30.4346C24.8052 30.2984 24.7763 30.1628 24.7152 30.0408L24.1888 28.988C23.7998 28.2101 23.202 27.5559 22.4621 27.0986C21.7223 26.6414 20.8697 26.3992 20 26.3992Z" fill="white"/>
</svg>
