<svg width="16" height="16" viewBox="0 0 16 16" fill="none" xmlns="http://www.w3.org/2000/svg">
<path d="M6.33203 9.16682C6.33203 9.81349 6.83204 10.3335 7.44537 10.3335H8.69869C9.23202 10.3335 9.66536 9.88015 9.66536 9.31349C9.66536 8.70682 9.3987 8.48682 9.00537 8.34682L6.9987 7.64682C6.60536 7.50682 6.3387 7.29349 6.3387 6.68016C6.3387 6.12016 6.77203 5.66016 7.30536 5.66016H8.5587C9.17203 5.66016 9.67204 6.18016 9.67204 6.82682" stroke="#22C55D" stroke-linecap="round" stroke-linejoin="round"/>
<path d="M8 5V11" stroke="#22C55D" stroke-linecap="round" stroke-linejoin="round"/>
<path d="M14.6654 7.9987C14.6654 11.6787 11.6787 14.6654 7.9987 14.6654C4.3187 14.6654 1.33203 11.6787 1.33203 7.9987C1.33203 4.3187 4.3187 1.33203 7.9987 1.33203" stroke="#22C55D" stroke-linecap="round" stroke-linejoin="round"/>
<path d="M11.332 2V4.66667H13.9987" stroke="#22C55D" stroke-linecap="round" stroke-linejoin="round"/>
<path d="M14.6654 1.33203L11.332 4.66536" stroke="#22C55D" stroke-linecap="round" stroke-linejoin="round"/>
</svg>
