<svg width="48" height="48" viewBox="0 0 48 48" fill="none" xmlns="http://www.w3.org/2000/svg">
<circle cx="24" cy="24" r="24" fill="#FDF1CC"/>
<circle cx="24" cy="24" r="20" fill="#F5BB00"/>
<path d="M30.0011 25.7148C30.6831 25.7148 31.3372 25.9858 31.8194 26.468C32.3016 26.9502 32.5725 27.6043 32.5725 28.2863V28.8991C32.5725 31.9651 28.964 34.2863 24.0011 34.2863C19.0383 34.2863 15.4297 32.086 15.4297 28.8991V28.2863C15.4297 27.6043 15.7006 26.9502 16.1828 26.468C16.6651 25.9858 17.3191 25.7148 18.0011 25.7148H30.0011ZM24.0011 13.7148C24.6765 13.7148 25.3452 13.8479 25.9692 14.1063C26.5932 14.3648 27.1601 14.7436 27.6377 15.2212C28.1152 15.6987 28.494 16.2657 28.7525 16.8896C29.0109 17.5136 29.144 18.1823 29.144 18.8577C29.144 19.5331 29.0109 20.2018 28.7525 20.8258C28.494 21.4497 28.1152 22.0167 27.6377 22.4943C27.1601 22.9718 26.5932 23.3506 25.9692 23.6091C25.3452 23.8675 24.6765 24.0006 24.0011 24.0006C22.6371 24.0006 21.329 23.4587 20.3646 22.4943C19.4001 21.5298 18.8583 20.2217 18.8583 18.8577C18.8583 17.4937 19.4001 16.1856 20.3646 15.2212C21.329 14.2567 22.6371 13.7148 24.0011 13.7148Z" fill="white"/>
</svg>
