<svg width="48" height="48" viewBox="0 0 48 48" fill="none" xmlns="http://www.w3.org/2000/svg">
<circle cx="24" cy="24" r="24" fill="#FDF1CC"/>
<circle cx="24" cy="24" r="20" fill="#F5BB00"/>
<path d="M16 25.9355C16 24.762 16 24.1765 16.2537 23.6757C16.5063 23.1761 16.976 22.8345 17.9143 22.1537L22.672 18.6983C23.312 18.2335 23.6343 18 24 18C24.3657 18 24.6869 18.2324 25.328 18.6983L30.0857 22.1525C31.024 22.8345 31.4937 23.1749 31.7463 23.6757C31.9989 24.1765 32 24.762 32 25.9344V31.6763C32 32.7719 32 33.3191 31.6651 33.6596C31.3303 34 30.792 34 29.7143 34H18.2857C17.208 34 16.6697 34 16.3349 33.6596C16 33.3191 16 32.7719 16 31.6763V25.9355Z" fill="white"/>
<path d="M14 24.2201C14 24.5221 14 24.6743 14.0933 24.7209C14.1867 24.7674 14.3044 24.6754 14.5378 24.4881L22.6356 18.0522C23.2911 17.531 23.6189 17.271 24 17.271C24.3811 17.271 24.7089 17.5321 25.3644 18.0522L33.4622 24.4881C33.6956 24.6743 33.8133 24.7674 33.9067 24.7209C34 24.6743 34 24.5221 34 24.2201V23.7557C34 23.2107 34 22.9381 33.8867 22.702C33.7733 22.4658 33.5633 22.2977 33.1422 21.9639L25.3644 15.7812C24.7089 15.26 24.3811 15 24 15C23.6189 15 23.2911 15.2612 22.6356 15.7812L14.8578 21.9639C14.4367 22.2977 14.2256 22.4658 14.1133 22.702C14.0011 22.9381 14 23.2107 14 23.7557V24.2201ZM24.5556 27.1871H23.4444C22.8551 27.1871 22.2898 27.4264 21.8731 27.8523C21.4563 28.2782 21.2222 28.8558 21.2222 29.4581V33.8297C21.2222 33.9239 21.2967 34 21.3889 34H26.6111C26.6553 34 26.6977 33.9821 26.729 33.9501C26.7602 33.9182 26.7778 33.8748 26.7778 33.8297V29.4581C26.7778 28.8558 26.5437 28.2782 26.1269 27.8523C25.7102 27.4264 25.1449 27.1871 24.5556 27.1871Z" fill="#F9FAFB"/>
<path d="M30.5 16H29.5C29.2239 16 29 16.2239 29 16.5V19.5C29 19.7761 29.2239 20 29.5 20H30.5C30.7761 20 31 19.7761 31 19.5V16.5C31 16.2239 30.7761 16 30.5 16Z" fill="white"/>
</svg>
