<svg width="16" height="16" viewBox="0 0 16 16" fill="none" xmlns="http://www.w3.org/2000/svg">
<path d="M14.6654 8.0013V11.3346C14.6654 13.3346 13.332 14.668 11.332 14.668H4.66536C2.66536 14.668 1.33203 13.3346 1.33203 11.3346V8.0013C1.33203 6.18797 2.42536 4.9213 4.12536 4.70797C4.2987 4.6813 4.4787 4.66797 4.66536 4.66797H11.332C11.5054 4.66797 11.672 4.67463 11.832 4.70129C13.552 4.90129 14.6654 6.17464 14.6654 8.0013Z" stroke="#858FA5" stroke-linecap="round" stroke-linejoin="round"/>
<path d="M11.8356 4.6987C11.6756 4.67203 11.5089 4.66537 11.3356 4.66537H4.66891C4.48224 4.66537 4.30224 4.6787 4.12891 4.70537C4.22224 4.5187 4.35557 4.34537 4.51557 4.18537L6.68224 2.01203C7.59557 1.10536 9.07557 1.10536 9.98891 2.01203L11.1556 3.19204C11.5822 3.61204 11.8089 4.14536 11.8356 4.6987Z" stroke="#858FA5" stroke-linecap="round" stroke-linejoin="round"/>
<path d="M14.6654 8.33203H12.6654C11.932 8.33203 11.332 8.93203 11.332 9.66536C11.332 10.3987 11.932 10.9987 12.6654 10.9987H14.6654" stroke="#858FA5" stroke-linecap="round" stroke-linejoin="round"/>
</svg>
