<svg width="28" height="24" viewBox="0 0 28 24" fill="none" xmlns="http://www.w3.org/2000/svg">
<path d="M17.7346 2.15048L26.6693 17.0318C27.9533 19.1691 27.3226 21.9811 25.26 23.3118C24.5681 23.761 23.7609 24 22.936 23.9998H5.0653C2.6373 23.9998 0.667969 21.9598 0.667969 19.4411C0.667969 18.5891 0.898635 17.7558 1.33197 17.0318L10.268 2.15048C11.5506 0.0131445 14.2626 -0.641522 16.3253 0.689144C16.896 1.05714 17.3786 1.55714 17.7346 2.15048ZM14.0013 18.6665C14.3549 18.6665 14.6941 18.526 14.9441 18.276C15.1942 18.0259 15.3346 17.6868 15.3346 17.3331C15.3346 16.9795 15.1942 16.6404 14.9441 16.3903C14.6941 16.1403 14.3549 15.9998 14.0013 15.9998C13.6477 15.9998 13.3085 16.1403 13.0585 16.3903C12.8084 16.6404 12.668 16.9795 12.668 17.3331C12.668 17.6868 12.8084 18.0259 13.0585 18.276C13.3085 18.526 13.6477 18.6665 14.0013 18.6665ZM14.0013 6.66648C13.6477 6.66648 13.3085 6.80695 13.0585 7.057C12.8084 7.30705 12.668 7.64619 12.668 7.99981V13.3331C12.668 13.6868 12.8084 14.0259 13.0585 14.276C13.3085 14.526 13.6477 14.6665 14.0013 14.6665C14.3549 14.6665 14.6941 14.526 14.9441 14.276C15.1942 14.0259 15.3346 13.6868 15.3346 13.3331V7.99981C15.3346 7.64619 15.1942 7.30705 14.9441 7.057C14.6941 6.80695 14.3549 6.66648 14.0013 6.66648Z" fill="#F59E0C"/>
</svg>
