<svg width="15" height="13" viewBox="0 0 15 13" fill="none" xmlns="http://www.w3.org/2000/svg">
<path d="M8.07902 0.99932L14.4297 11.9993C14.4882 12.1007 14.519 12.2156 14.519 12.3326C14.519 12.4497 14.4882 12.5646 14.4297 12.666C14.3712 12.7673 14.287 12.8515 14.1857 12.91C14.0843 12.9685 13.9694 12.9993 13.8524 12.9993H1.15102C1.034 12.9993 0.919041 12.9685 0.817697 12.91C0.716354 12.8515 0.632197 12.7673 0.573687 12.666C0.515177 12.5646 0.484374 12.4497 0.484375 12.3326C0.484376 12.2156 0.51518 12.1007 0.573691 11.9993L6.92436 0.99932C6.98287 0.897981 7.06703 0.81383 7.16837 0.755323C7.26971 0.696817 7.38467 0.666016 7.50169 0.666016C7.61871 0.666016 7.73367 0.696817 7.83501 0.755323C7.93635 0.81383 8.02051 0.897981 8.07902 0.99932ZM6.83502 9.66599V10.9993H8.16836V9.66599H6.83502ZM6.83502 4.99932V8.33265H8.16836V4.99932H6.83502Z" fill="#F5BB00"/>
</svg>
