<svg width="137" height="137" viewBox="0 0 137 137" fill="none" xmlns="http://www.w3.org/2000/svg">
<path d="M49.594 67.2478L24.375 53.0272L33.1403 37.6558L58.3647 51.8682L49.594 67.2478ZM99.9278 80.367L57.3153 56.3646L52.934 64.0585L95.541 88.0636L99.9278 80.367ZM105.101 83.2851L100.706 90.9735L122.681 103.342L127.076 95.6616L105.101 83.2851ZM99.1825 90.9735C98.8455 91.5736 97.9248 91.716 97.1248 91.2776C96.3274 90.8283 95.974 89.9761 96.3137 89.3679L101.451 80.367C101.805 79.7559 102.725 79.608 103.517 80.0628C104.304 80.5122 104.66 81.3835 104.32 81.9945L99.1825 90.9735ZM131.602 95.9028C130.755 95.4357 129.799 95.2013 128.832 95.2232L123.212 105.065C123.664 105.89 124.338 106.611 125.226 107.093C127.703 108.496 130.819 107.688 132.18 105.306L133.622 102.758C134.986 100.361 134.087 97.3056 131.602 95.9028ZM60.8033 48.9063C60.4821 49.4753 59.9483 49.8935 59.3189 50.0692C58.6896 50.2449 58.0163 50.1637 57.4468 49.8434L35.3734 37.3983C35.0904 37.2412 34.8415 37.0294 34.6412 36.7751C34.4409 36.5209 34.2932 36.2293 34.2067 35.9174C34.1203 35.6055 34.0968 35.2795 34.1376 34.9584C34.1784 34.6373 34.2828 34.3276 34.4445 34.0473C34.7715 33.4805 35.3095 33.0662 35.9409 32.8947C36.5724 32.7232 37.246 32.8086 37.8147 33.1321L59.8827 45.5607C60.1643 45.7185 60.4117 45.9306 60.6107 46.1847C60.8097 46.4389 60.9563 46.73 61.0419 47.0412C61.1276 47.3524 61.1506 47.6775 61.1096 47.9977C61.0687 48.3178 60.9646 48.6267 60.8033 48.9063ZM63.8968 43.503C63.7373 43.785 63.5238 44.0328 63.2685 44.2323C63.0132 44.4317 62.7211 44.5789 62.4088 44.6654C62.0966 44.7519 61.7704 44.7761 61.4489 44.7365C61.1273 44.6969 60.8167 44.5943 60.5348 44.4346L38.4531 31.9923C38.1714 31.8361 37.9237 31.6253 37.7243 31.3723C37.5249 31.1193 37.378 30.8291 37.292 30.5186C37.2061 30.2082 37.1828 29.8838 37.2236 29.5642C37.2645 29.2447 37.3685 28.9365 37.5298 28.6577C37.689 28.3744 37.9027 28.1253 38.1586 27.9249C38.4144 27.7244 38.7074 27.5765 39.0206 27.4897C39.3338 27.4029 39.6611 27.3788 39.9836 27.4189C40.3061 27.459 40.6176 27.5625 40.9 27.7233L62.9734 40.1547C63.2556 40.3123 63.5036 40.5243 63.7032 40.7785C63.9027 41.0328 64.0496 41.3241 64.1356 41.6357C64.2215 41.9472 64.2446 42.2727 64.2036 42.5933C64.1626 42.9139 64.0583 43.2231 63.8968 43.503ZM45.2429 76.2296C44.9144 76.7939 44.3769 77.2063 43.7468 77.3776C43.1166 77.5488 42.4444 77.4652 41.8754 77.1447L19.7855 64.6996C19.5038 64.5413 19.2563 64.3287 19.0571 64.0742C18.8579 63.8198 18.711 63.5284 18.6249 63.2169C18.5388 62.9054 18.5152 62.58 18.5555 62.2593C18.5957 61.9387 18.699 61.6292 18.8594 61.3486C19.1894 60.7859 19.7268 60.3749 20.3564 60.2038C20.9859 60.0327 21.6574 60.1152 22.2269 60.4335L44.3058 72.8785C44.8733 73.1997 45.2905 73.7326 45.4661 74.3606C45.6418 74.9886 45.5615 75.6606 45.2429 76.2296ZM48.3281 70.8071C48.1675 71.0905 47.9523 71.3393 47.6949 71.539C47.4376 71.7388 47.1433 71.8856 46.8289 71.9709C46.5145 72.0562 46.1863 72.0785 45.8633 72.0363C45.5403 71.994 45.2288 71.8883 44.9469 71.725L22.8735 59.2936C22.3074 58.9711 21.8919 58.4376 21.7179 57.8097C21.5438 57.1818 21.6254 56.5106 21.9446 55.9426C22.1053 55.6603 22.3201 55.4125 22.5768 55.2135C22.8335 55.0144 23.127 54.8681 23.4404 54.7828C23.7538 54.6975 24.081 54.675 24.4031 54.7165C24.7253 54.758 25.036 54.8627 25.3176 55.0247L47.3883 67.4561C47.9563 67.7768 48.3741 68.3095 48.5502 68.9375C48.7263 69.5656 48.6465 70.2378 48.3281 70.8071ZM11.286 92.9436H50.205V97.418H11.286V92.9436ZM58.7045 102.276C58.583 101.539 58.2036 100.869 57.634 100.386C57.0644 99.9024 56.3416 99.6372 55.5946 99.6374H5.90743C5.16041 99.6372 4.43762 99.9024 3.868 100.386C3.29839 100.869 2.919 101.539 2.79753 102.276H2.73999V109.603H58.762V102.276H58.7045Z" fill="url(#paint0_linear_16535_17425)" fill-opacity="0.4"/>
<defs>
<linearGradient id="paint0_linear_16535_17425" x1="11.1927" y1="36.7413" x2="136.187" y2="83.2365" gradientUnits="userSpaceOnUse">
<stop stop-color="#E8EBED"/>
<stop offset="1" stop-color="#CBCDD8"/>
</linearGradient>
</defs>
</svg>
