<svg width="98" height="98" viewBox="0 0 98 98" fill="none" xmlns="http://www.w3.org/2000/svg">
<g opacity="0.5" clip-path="url(#clip0_16535_17410)">
<path d="M33.8101 2.19888C33.9967 1.56389 34.3841 1.00645 34.9141 0.61005C35.4441 0.213647 36.0882 -0.000387017 36.7501 5.25351e-07H61.2501C61.7351 0.000368686 62.2131 0.115922 62.6447 0.337147C63.0763 0.558372 63.4492 0.878943 63.7327 1.27247C64.0161 1.666 64.2021 2.12122 64.2752 2.60068C64.3484 3.08013 64.3066 3.5701 64.1533 4.03025L53.2508 36.75H76.5626C77.1361 36.7496 77.6982 36.9102 78.1849 37.2137C78.6715 37.5171 79.0633 37.951 79.3154 38.4661C79.5675 38.9812 79.6699 39.5568 79.611 40.1273C79.552 40.6977 79.3341 41.2402 78.982 41.6929L36.107 96.8179C35.6677 97.3853 35.0432 97.7805 34.3424 97.9345C33.6415 98.0885 32.9088 97.9914 32.2722 97.6604C31.6356 97.3293 31.1354 96.7852 30.859 96.123C30.5826 95.4608 30.5475 94.7226 30.7598 94.0371L41.791 58.1875H21.4376C20.9615 58.1878 20.4918 58.077 20.066 57.8641C19.6401 57.6511 19.2698 57.3418 18.9844 56.9607C18.699 56.5796 18.5064 56.1371 18.4219 55.6686C18.3374 55.2 18.3633 54.7182 18.4976 54.2614L33.8101 2.19888Z" fill="url(#paint0_linear_16535_17410)"/>
</g>
<defs>
<linearGradient id="paint0_linear_16535_17410" x1="22.3101" y1="11.137" x2="87.21" y2="20.5677" gradientUnits="userSpaceOnUse">
<stop stop-color="#EBEDEF"/>
<stop offset="1" stop-color="#D9DBE3"/>
</linearGradient>
<clipPath id="clip0_16535_17410">
<rect width="98" height="98" fill="white"/>
</clipPath>
</defs>
</svg>
