<svg width="70" height="80" viewBox="0 0 70 80" fill="none" xmlns="http://www.w3.org/2000/svg">
<path d="M33.6427 1.2116C34.0447 0.944028 34.517 0.80127 35 0.80127C35.4829 0.80127 35.9552 0.944028 36.3573 1.2116C45.6078 7.44781 56.1527 11.5039 67.1978 13.0745C67.7814 13.1582 68.3153 13.4496 68.7014 13.8951C69.0875 14.3406 69.3 14.9104 69.2999 15.5V37.55C69.2999 56.6159 57.9957 70.527 35.882 79.0383C35.3144 79.2573 34.6856 79.2573 34.118 79.0383C12.0091 70.527 0.699951 56.611 0.699951 37.55V15.5C0.700041 14.9097 0.913248 14.3393 1.30036 13.8937C1.68748 13.448 2.22247 13.1571 2.80695 13.0745C13.8504 11.5032 24.3936 7.44712 33.6427 1.2116Z" fill="url(#paint0_radial_16535_17431)"/>
<defs>
<radialGradient id="paint0_radial_16535_17431" cx="0" cy="0" r="1" gradientUnits="userSpaceOnUse" gradientTransform="translate(-26.25 -43.3) rotate(55.2568) scale(184.857 161.75)">
<stop offset="0.338" stop-color="#E8EAEE"/>
<stop offset="0.529" stop-color="#E8EAEE"/>
<stop offset="0.682" stop-color="#D3D7DE"/>
<stop offset="0.861" stop-color="#E8EAEE"/>
</radialGradient>
</defs>
</svg>
