<svg width="98" height="98" viewBox="0 0 98 98" fill="none" xmlns="http://www.w3.org/2000/svg">
<g opacity="0.5">
<path d="M5 32.5375C5 28.1515 6.74234 23.9451 9.84372 20.8437C12.9451 17.7423 17.1515 16 21.5375 16H76.6625C81.0485 16 85.2549 17.7423 88.3562 20.8437C91.4576 23.9451 93.2 28.1515 93.2 32.5375V65.6125C93.2 69.9985 91.4576 74.2049 88.3562 77.3062C85.2549 80.4076 81.0485 82.15 76.6625 82.15H21.5375C17.1515 82.15 12.9451 80.4076 9.84372 77.3062C6.74234 74.2049 5 69.9985 5 65.6125V32.5375Z" fill="url(#paint0_linear_16535_17415)"/>
<path d="M5 32.5375C5 28.1515 6.74234 23.9451 9.84372 20.8437C12.9451 17.7423 17.1515 16 21.5375 16H76.6625C81.0485 16 85.2549 17.7423 88.3562 20.8437C91.4576 23.9451 93.2 28.1515 93.2 32.5375V65.6125C93.2 69.9985 91.4576 74.2049 88.3562 77.3062C85.2549 80.4076 81.0485 82.15 76.6625 82.15H21.5375C17.1515 82.15 12.9451 80.4076 9.84372 77.3062C6.74234 74.2049 5 69.9985 5 65.6125V32.5375Z" fill="url(#paint1_radial_16535_17415)" fill-opacity="0.5"/>
<path d="M5 32.5375C5 28.1515 6.74234 23.9451 9.84372 20.8437C12.9451 17.7423 17.1515 16 21.5375 16H76.6625C81.0485 16 85.2549 17.7423 88.3562 20.8437C91.4576 23.9451 93.2 28.1515 93.2 32.5375V65.6125C93.2 69.9985 91.4576 74.2049 88.3562 77.3062C85.2549 80.4076 81.0485 82.15 76.6625 82.15H21.5375C17.1515 82.15 12.9451 80.4076 9.84372 77.3062C6.74234 74.2049 5 69.9985 5 65.6125V32.5375Z" fill="url(#paint2_radial_16535_17415)" fill-opacity="0.5"/>
<path fill-rule="evenodd" clip-rule="evenodd" d="M73.1012 36.0984C72.8452 35.8418 72.541 35.6381 72.2062 35.4992C71.8713 35.3602 71.5124 35.2887 71.1498 35.2887C70.7873 35.2887 70.4283 35.3602 70.0934 35.4992C69.7586 35.6381 69.4544 35.8418 69.1984 36.0984L65.7255 39.5713C64.028 38.5731 62.0941 38.0477 60.1248 38.0499C58.0852 38.0499 56.1668 38.6066 54.5241 39.5768L51.0512 36.104C50.5344 35.5864 49.8332 35.2954 49.1018 35.2948C48.3704 35.2943 47.6687 35.5844 47.1512 36.1012C46.6336 36.618 46.3426 37.3193 46.342 38.0507C46.3415 38.7821 46.6316 39.4837 47.1484 40.0013L50.6213 43.4742C49.623 45.1717 49.0977 47.1056 49.0998 49.0749C49.0998 51.1145 49.6566 53.0328 50.6268 54.6756L47.1539 58.1484C46.6364 58.6653 46.3453 59.3665 46.3448 60.0979C46.3443 60.8293 46.6343 61.531 47.1512 62.0485C47.668 62.5661 48.3692 62.8571 49.1006 62.8576C49.832 62.8582 50.5337 62.5681 51.0512 62.0513L54.5241 58.5784C56.2214 59.5783 58.1556 60.1052 60.1256 60.1042C62.0955 60.1032 64.0292 59.5745 65.7255 58.5729L69.1984 62.0458C69.7152 62.5633 70.4165 62.8544 71.1479 62.8549C71.8793 62.8554 72.5809 62.5653 73.0985 62.0485C73.616 61.5317 73.9071 60.8305 73.9076 60.099C73.9081 59.3676 73.6181 58.666 73.1012 58.1484L69.6284 54.6756C70.6283 52.9783 71.1551 51.044 71.1541 49.0741C71.1532 47.1042 70.6244 45.1705 69.6228 43.4742L73.0957 40.0013C73.3524 39.7453 73.5561 39.4411 73.695 39.1062C73.834 38.7714 73.9055 38.4124 73.9055 38.0499C73.9055 37.6873 73.834 37.3283 73.695 36.9935C73.5561 36.6586 73.3524 36.3545 73.0957 36.0984M60.1248 54.5874C61.5868 54.5874 62.9889 54.0066 64.0227 52.9728C65.0565 51.939 65.6373 50.5369 65.6373 49.0749C65.6373 47.6129 65.0565 46.2107 64.0227 45.1769C62.9889 44.1431 61.5868 43.5624 60.1248 43.5624C58.6628 43.5624 57.2607 44.1431 56.2269 45.1769C55.1931 46.2107 54.6123 47.6129 54.6123 49.0749C54.6123 50.5369 55.1931 51.939 56.2269 52.9728C57.2607 54.0066 58.6628 54.5874 60.1248 54.5874Z" fill="url(#paint3_linear_16535_17415)"/>
<path fill-rule="evenodd" clip-rule="evenodd" d="M24.2936 32.5375C25.0246 32.5375 25.7257 32.8279 26.2426 33.3448C26.7595 33.8617 27.0499 34.5627 27.0499 35.2937V62.8562C27.0499 63.5872 26.7595 64.2883 26.2426 64.8052C25.7257 65.3221 25.0246 65.6125 24.2936 65.6125C23.5626 65.6125 22.8615 65.3221 22.3446 64.8052C21.8277 64.2883 21.5374 63.5872 21.5374 62.8562V35.2937C21.5374 34.5627 21.8277 33.8617 22.3446 33.3448C22.8615 32.8279 23.5626 32.5375 24.2936 32.5375Z" fill="url(#paint4_linear_16535_17415)"/>
</g>
<defs>
<linearGradient id="paint0_linear_16535_17415" x1="2.24375" y1="10.4875" x2="40.7485" y2="107.403" gradientUnits="userSpaceOnUse">
<stop offset="0.005" stop-color="#E8EAEE"/>
<stop offset="1" stop-color="#D4D8DF"/>
</linearGradient>
<radialGradient id="paint1_radial_16535_17415" cx="0" cy="0" r="1" gradientTransform="matrix(15.75 13.23 -9.90756 11.7946 64.8492 52.3825)" gradientUnits="userSpaceOnUse">
<stop stop-color="#E4E6EB"/>
<stop offset="1" stop-color="#E4E6EB" stop-opacity="0"/>
</radialGradient>
<radialGradient id="paint2_radial_16535_17415" cx="0" cy="0" r="1" gradientUnits="userSpaceOnUse" gradientTransform="translate(30.1976 52.3825) rotate(90) scale(19.845 7.67924)">
<stop offset="0.024" stop-color="#E4E6EB" stop-opacity="0.7"/>
<stop offset="1" stop-color="#E4E6EB" stop-opacity="0"/>
</radialGradient>
<linearGradient id="paint3_linear_16535_17415" x1="48.7525" y1="35.7787" x2="53.3389" y2="65.3202" gradientUnits="userSpaceOnUse">
<stop stop-color="#FDFDFD"/>
<stop offset="1" stop-color="#E8EAEE"/>
</linearGradient>
<linearGradient id="paint4_linear_16535_17415" x1="22.0169" y1="33.1163" x2="40.1255" y2="52.5699" gradientUnits="userSpaceOnUse">
<stop stop-color="#FDFDFD"/>
<stop offset="1" stop-color="#E4E6EA"/>
</linearGradient>
</defs>
</svg>
