<svg width="111" height="45" viewBox="0 0 111 45" fill="none" xmlns="http://www.w3.org/2000/svg">
<g clip-path="url(#clip0_15237_34771)">
<path d="M9.64187 0.0773163H34.3849C39.7101 0.0773163 44.0268 4.394 44.0268 9.71918V34.4622C44.0268 39.7874 39.7101 44.1041 34.3849 44.1041H9.64187C4.31669 44.1041 0 39.7874 0 34.4622V9.71918C0 4.394 4.31669 0.0773163 9.64187 0.0773163Z" fill="url(#paint0_linear_15237_34771)"/>
<path d="M14.1095 32.0326L14.1136 32.034L12.6083 34.6412C12.0588 35.5929 10.8419 35.919 9.89017 35.3695C8.93861 34.82 8.61236 33.6031 9.16184 32.6514L10.2708 30.7307L10.3772 30.5463C10.5673 30.2732 11.0362 29.8017 11.9744 29.8904C11.9744 29.8904 14.1821 30.13 14.3419 31.2774C14.3419 31.2774 14.3635 31.6549 14.1095 32.0326ZM35.4596 25.3735H30.7656C30.4459 25.352 30.3064 25.2378 30.2513 25.1714L30.2479 25.1654L25.2232 16.4622L25.2166 16.4665L24.9153 16.0345C24.4214 15.2792 23.6372 17.2109 23.6372 17.2109C22.7008 19.3634 23.7701 21.8105 24.1428 22.5501L31.1221 34.6386C31.6714 35.5901 32.8883 35.9164 33.8402 35.3667C34.7918 34.8173 35.118 33.6003 34.5684 32.6486L32.8233 29.6259C32.7894 29.5526 32.7306 29.3538 33.0885 29.353H35.4596C36.5585 29.353 37.4494 28.4621 37.4494 27.3632C37.4494 26.2642 36.5585 25.3734 35.4596 25.3734V25.3735ZM26.3423 28.0784C26.3423 28.0784 26.5928 29.353 25.6234 29.353H8.27081C7.17186 29.353 6.28101 28.4621 6.28101 27.3632C6.28101 26.2642 7.17186 25.3734 8.27081 25.3734H12.732C13.4522 25.3317 13.6228 24.9159 13.6228 24.9159L13.6269 24.918L19.4502 14.8317L19.4484 14.8313C19.5546 14.6365 19.4662 14.4523 19.4509 14.4232L17.5276 11.0922C16.9781 10.1406 17.3042 8.92351 18.2559 8.3742C19.2077 7.82473 20.4246 8.15063 20.9741 9.10236L21.866 10.6473L22.7563 9.10512C23.3058 8.15355 24.5227 7.82731 25.4744 8.37695C26.4262 8.92643 26.7522 10.1432 26.2028 11.0949L18.0994 25.1302C18.064 25.2157 18.0532 25.3498 18.3168 25.3734H23.1605L23.1615 25.4207C23.1615 25.4207 25.961 25.4642 26.3423 28.0784Z" fill="white"/>
</g>
<path d="M71.9456 43.3714L71.8185 43.2493C71.3207 42.7204 71.0268 41.8992 71.0268 40.8357V41.086V3.09642C71.0268 3.09299 71.0268 3.09041 71.0268 3.08766C71.0268 3.09092 71.0268 3.09367 71.0268 3.09711V3.34807C71.0268 2.19649 71.3695 1.32904 71.9436 0.808908L93.1394 22.0909L71.9456 43.3714ZM71.0268 3.0856C71.0268 2.99095 71.0294 2.89905 71.0342 2.80852C71.0294 2.89836 71.0268 2.99095 71.0268 3.0856ZM71.0342 2.80441C71.0342 2.8032 71.0341 2.80183 71.0347 2.80045C71.0341 2.80183 71.0342 2.8032 71.0342 2.80441ZM71.0347 2.79238C71.0347 2.7917 71.0347 2.79101 71.0347 2.79032C71.0347 2.79101 71.0347 2.7917 71.0347 2.79238Z" fill="url(#paint1_linear_15237_34771)"/>
<path d="M100.203 29.4372L100.364 29.3453L108.735 24.5698C109.533 24.1143 110.065 23.562 110.33 22.9777C110.066 23.562 109.534 24.115 108.735 24.5705L100.364 29.346L100.203 29.4372ZM100.205 29.1856L93.1392 22.0892L100.205 14.9941L108.735 19.8601C109.818 20.4782 110.426 21.2747 110.528 22.0886C110.528 22.0892 110.528 22.0906 110.528 22.0918C110.426 22.9038 109.818 23.701 108.735 24.3189L100.205 29.1856Z" fill="url(#paint2_linear_15237_34771)"/>
<path d="M73.4569 44.1814C72.8648 44.1814 72.3482 43.9882 71.9453 43.6232L71.946 43.6225C72.3489 43.9875 72.8662 44.1814 73.4583 44.1814C73.5096 44.1814 73.5618 44.1801 73.6146 44.1775C73.5611 44.1801 73.5082 44.1814 73.4569 44.1814ZM73.4576 43.9298C72.8655 43.9305 72.3489 43.7365 71.946 43.3715V43.371L93.1397 22.0904L100.206 29.1867L75.3741 43.3535C74.6871 43.7446 74.0362 43.9298 73.4576 43.9298ZM71.94 43.6185C71.9025 43.5843 71.8657 43.5481 71.8297 43.5105L71.94 43.6185Z" fill="url(#paint3_linear_15237_34771)"/>
<path d="M93.1391 22.0905L71.9433 0.808542C72.3462 0.444209 72.8621 0.250962 73.4535 0.250962C74.0337 0.250962 74.6851 0.436824 75.3735 0.828639L100.205 14.9954L93.1391 22.0905ZM100.364 14.8351L75.3735 0.577846C74.6851 0.185857 74.0337 1.3167e-06 73.4535 1.3167e-06C73.4508 1.3167e-06 73.4489 1.3167e-06 73.4462 1.3167e-06C73.4496 1.3167e-06 73.4522 1.3167e-06 73.4563 1.3167e-06C74.035 1.3167e-06 74.6858 0.18517 75.3735 0.57716L100.364 14.8351Z" fill="url(#paint4_linear_15237_34771)"/>
<path d="M73.6147 44.1776C74.1526 44.1467 74.7481 43.9608 75.3742 43.6045L100.204 29.4385L75.3742 43.6045C74.7486 43.9615 74.1526 44.1467 73.6147 44.1776ZM71.9454 43.6233L71.9401 43.6186C71.942 43.62 71.944 43.6219 71.9454 43.6233ZM71.8297 43.5106L71.819 43.4999V43.4992C71.8231 43.5032 71.8263 43.5071 71.8297 43.5106Z" fill="black"/>
<path d="M100.204 29.4372L100.365 29.3453L100.204 29.4372Z" fill="url(#paint5_linear_15237_34771)"/>
<path d="M73.4575 44.1814C72.8654 44.1814 72.348 43.9875 71.9452 43.6225L71.9445 43.6232C71.9431 43.6218 71.9411 43.6199 71.9392 43.6185L71.8288 43.5105C71.8254 43.507 71.8222 43.5031 71.8181 43.4991L71.9452 43.3715C72.348 43.7365 72.8647 43.9305 73.4568 43.9298C74.0354 43.9298 74.6863 43.7446 75.3733 43.3535L100.205 29.1867L100.364 29.3465L100.203 29.4384L75.3733 43.6044C74.7472 43.9607 74.1517 44.1466 73.6138 44.1775C73.561 44.1801 73.5088 44.1814 73.4575 44.1814Z" fill="url(#paint6_linear_15237_34771)"/>
<path d="M71.8187 43.5004C71.3208 42.9715 71.0269 42.1503 71.0269 41.0868V41.0861C71.0269 42.1503 71.3208 42.9708 71.8187 43.4997V43.5004Z" fill="black"/>
<path d="M71.8185 43.4989C71.3207 42.97 71.0268 42.1494 71.0268 41.0853V40.835C71.0268 41.8985 71.3207 42.7197 71.8185 43.2486L71.9456 43.3707L71.8185 43.4989Z" fill="url(#paint7_linear_15237_34771)"/>
<path d="M71.8187 43.4989L71.9458 43.3707V43.3712L71.8187 43.4989Z" fill="url(#paint8_linear_15237_34771)"/>
<path d="M110.331 22.978C110.462 22.6881 110.528 22.3902 110.528 22.0922C110.528 22.0917 110.528 22.091 110.528 22.091C110.528 22.3895 110.462 22.6874 110.331 22.978Z" fill="black"/>
<path d="M100.365 29.3474L100.206 29.1877L108.735 24.321C109.818 23.7031 110.427 22.9059 110.528 22.0939C110.528 22.3919 110.462 22.6898 110.331 22.9797C110.065 23.5641 109.533 24.1164 108.735 24.5719L100.365 29.3474Z" fill="url(#paint9_linear_15237_34771)"/>
<path d="M110.528 22.0905V22.0898C110.528 21.1913 109.93 20.2929 108.735 19.6111L100.365 14.8356H100.364L100.365 14.8351L108.735 19.6104C109.931 20.2922 110.53 21.192 110.528 22.0905Z" fill="#404040"/>
<path d="M110.529 22.0897C110.427 21.2759 109.819 20.4793 108.735 19.8613L100.205 14.9953L100.364 14.8355H100.365L108.735 19.611C109.93 20.2928 110.528 21.1912 110.529 22.0897Z" fill="url(#paint10_linear_15237_34771)"/>
<path d="M71.0269 3.08749C71.0269 3.08681 71.0269 3.08612 71.0269 3.08543C71.0269 3.08612 71.0269 3.08681 71.0269 3.08749ZM71.0343 2.80836C71.0343 2.80699 71.0343 2.80561 71.0343 2.80424C71.0343 2.80561 71.0343 2.80699 71.0343 2.80836ZM71.0348 2.80029C71.0348 2.79754 71.0348 2.79496 71.0348 2.79222C71.0348 2.79496 71.0348 2.79754 71.0348 2.80029ZM71.0348 2.79016C71.1338 1.02552 72.0895 0.00621077 73.4413 0.000198803C72.8552 0.00363406 72.3447 0.19688 71.9451 0.558465V0.557778L71.9403 0.562585C71.8982 0.600719 71.8582 0.641087 71.8186 0.682656C71.3696 1.15967 71.0863 1.87426 71.0348 2.79016Z" fill="#404040"/>
<path d="M71.0268 3.34778V3.09682C71.0268 3.09338 71.0268 3.09063 71.0268 3.08737C71.0268 3.08668 71.0268 3.086 71.0268 3.08531C71.0268 2.99066 71.0294 2.89807 71.0342 2.80824C71.0342 2.80686 71.0342 2.80549 71.0342 2.80412C71.0342 2.80291 71.0341 2.80154 71.0347 2.80016C71.0347 2.79742 71.0347 2.79484 71.0347 2.79209C71.0347 2.7914 71.0347 2.79072 71.0347 2.79003C71.0862 1.87413 71.3695 1.15955 71.8185 0.682529L71.9436 0.808613C71.3695 1.32875 71.0268 2.1962 71.0268 3.34778ZM71.9402 0.562458L71.945 0.557651C71.9436 0.559712 71.9415 0.561084 71.9402 0.562458Z" fill="url(#paint11_linear_15237_34771)"/>
<path d="M100.204 14.9963L75.3733 0.82962C74.6849 0.437803 74.0335 0.251943 73.4534 0.251943C72.862 0.251943 72.346 0.445189 71.9431 0.809521L71.8181 0.683438C71.8576 0.641869 71.8976 0.601501 71.9397 0.563367C71.9411 0.561993 71.9431 0.560621 71.9445 0.559247C72.3441 0.197662 72.8546 0.00441679 73.4407 0.000981525C73.4421 0.000981525 73.4439 0.000981525 73.446 0.000981525C73.4487 0.000981525 73.4506 0.000981525 73.4534 0.000981525C74.0335 0.000981525 74.6849 0.186838 75.3733 0.578826L100.364 14.8361L100.364 14.8366L100.204 14.9963Z" fill="url(#paint12_linear_15237_34771)"/>
<defs>
<linearGradient id="paint0_linear_15237_34771" x1="22.0134" y1="0.0773163" x2="22.0134" y2="44.1041" gradientUnits="userSpaceOnUse">
<stop stop-color="#17C9FB"/>
<stop offset="1" stop-color="#1A74E8"/>
</linearGradient>
<linearGradient id="paint1_linear_15237_34771" x1="91.26" y1="2.69567" x2="62.4322" y2="31.406" gradientUnits="userSpaceOnUse">
<stop stop-color="#00A0FF"/>
<stop offset="0.00657445" stop-color="#00A1FF"/>
<stop offset="0.2601" stop-color="#00BEFF"/>
<stop offset="0.5122" stop-color="#00D2FF"/>
<stop offset="0.7604" stop-color="#00DFFF"/>
<stop offset="1" stop-color="#00E3FF"/>
</linearGradient>
<linearGradient id="paint2_linear_15237_34771" x1="111.848" y1="22.0903" x2="70.453" y2="22.0903" gradientUnits="userSpaceOnUse">
<stop stop-color="#FFE000"/>
<stop offset="0.4087" stop-color="#FFBD00"/>
<stop offset="0.7754" stop-color="#FFA500"/>
<stop offset="1" stop-color="#FF9C00"/>
</linearGradient>
<linearGradient id="paint3_linear_15237_34771" x1="96.4391" y1="26.0331" x2="57.3465" y2="64.9665" gradientUnits="userSpaceOnUse">
<stop stop-color="#FF3A44"/>
<stop offset="1" stop-color="#C31162"/>
</linearGradient>
<linearGradient id="paint4_linear_15237_34771" x1="66.4496" y1="-11.963" x2="83.906" y2="5.42229" gradientUnits="userSpaceOnUse">
<stop stop-color="#32A071"/>
<stop offset="0.0685" stop-color="#2DA771"/>
<stop offset="0.4762" stop-color="#15CF74"/>
<stop offset="0.8009" stop-color="#06E775"/>
<stop offset="1" stop-color="#00F076"/>
</linearGradient>
<linearGradient id="paint5_linear_15237_34771" x1="111.848" y1="22.0899" x2="70.4545" y2="22.0899" gradientUnits="userSpaceOnUse">
<stop stop-color="#CCB300"/>
<stop offset="0.4087" stop-color="#CC9700"/>
<stop offset="0.7754" stop-color="#CC8400"/>
<stop offset="1" stop-color="#CC7D00"/>
</linearGradient>
<linearGradient id="paint6_linear_15237_34771" x1="96.4383" y1="26.0331" x2="57.3457" y2="64.9665" gradientUnits="userSpaceOnUse">
<stop stop-color="#CC2E36"/>
<stop offset="1" stop-color="#9C0E4E"/>
</linearGradient>
<linearGradient id="paint7_linear_15237_34771" x1="91.2599" y1="2.69495" x2="62.4322" y2="31.4053" gradientUnits="userSpaceOnUse">
<stop stop-color="#008DE0"/>
<stop offset="0.00657445" stop-color="#008DE0"/>
<stop offset="0.2601" stop-color="#00A7E0"/>
<stop offset="0.5122" stop-color="#00B8E0"/>
<stop offset="0.7604" stop-color="#00C4E0"/>
<stop offset="1" stop-color="#00C7E0"/>
</linearGradient>
<linearGradient id="paint8_linear_15237_34771" x1="96.439" y1="26.0324" x2="57.3453" y2="64.9659" gradientUnits="userSpaceOnUse">
<stop stop-color="#E0333C"/>
<stop offset="1" stop-color="#AB0F56"/>
</linearGradient>
<linearGradient id="paint9_linear_15237_34771" x1="111.848" y1="22.0924" x2="70.4532" y2="22.0924" gradientUnits="userSpaceOnUse">
<stop stop-color="#E0C500"/>
<stop offset="0.4087" stop-color="#E0A600"/>
<stop offset="0.7754" stop-color="#E09100"/>
<stop offset="1" stop-color="#E08900"/>
</linearGradient>
<linearGradient id="paint10_linear_15237_34771" x1="111.848" y1="22.0914" x2="70.4534" y2="22.0914" gradientUnits="userSpaceOnUse">
<stop stop-color="#FFE840"/>
<stop offset="0.4087" stop-color="#FFCE40"/>
<stop offset="0.7754" stop-color="#FFBC40"/>
<stop offset="1" stop-color="#FFB540"/>
</linearGradient>
<linearGradient id="paint11_linear_15237_34771" x1="91.26" y1="2.69538" x2="62.4322" y2="31.4057" gradientUnits="userSpaceOnUse">
<stop stop-color="#40B8FF"/>
<stop offset="0.00657445" stop-color="#40B9FF"/>
<stop offset="0.2601" stop-color="#40CEFF"/>
<stop offset="0.5122" stop-color="#40DDFF"/>
<stop offset="0.7604" stop-color="#40E7FF"/>
<stop offset="1" stop-color="#40EAFF"/>
</linearGradient>
<linearGradient id="paint12_linear_15237_34771" x1="66.4494" y1="-11.9621" x2="83.9058" y2="5.42327" gradientUnits="userSpaceOnUse">
<stop stop-color="#65B895"/>
<stop offset="0.0685" stop-color="#62BD95"/>
<stop offset="0.4762" stop-color="#50DB97"/>
<stop offset="0.8009" stop-color="#44ED98"/>
<stop offset="1" stop-color="#40F498"/>
</linearGradient>
<clipPath id="clip0_15237_34771">
<rect width="44.0268" height="44.0268" fill="white" transform="translate(0 0.0773163)"/>
</clipPath>
</defs>
</svg>
