<svg width="24" height="24" viewBox="0 0 24 24" fill="none" xmlns="http://www.w3.org/2000/svg">
<path d="M23.6385 14.9031C22.0358 21.3317 15.5243 25.2437 9.0949 23.641C2.66853 22.0382 -1.24385 15.5267 0.359278 9.09847C1.96128 2.6691 8.4724 -1.24365 14.8999 0.359098C21.3289 1.96185 25.2409 8.4741 23.6382 14.9031H23.6385Z" fill="#F7931A"/>
<path fill-rule="evenodd" clip-rule="evenodd" d="M15.6156 10.6063C15.7774 9.52304 14.9526 8.94073 13.8249 8.55227L14.1907 7.08493L13.2973 6.86233L12.9411 8.29101C12.7066 8.2325 12.4654 8.1773 12.2258 8.1226L12.5845 6.68451L11.6918 6.46191L11.3257 7.92875C11.1314 7.88449 10.9406 7.84073 10.7554 7.79469L10.7564 7.79011L9.52463 7.48255L9.28702 8.43652C9.28702 8.43652 9.94972 8.5884 9.93573 8.59781C10.2975 8.68812 10.3631 8.92751 10.3519 9.11728L9.93522 10.7889C9.96015 10.7953 9.99246 10.8044 10.0281 10.8187L9.93395 10.7953L9.3496 13.137C9.30534 13.2469 9.19315 13.4117 8.94028 13.3491C8.94918 13.3621 8.29107 13.1871 8.29107 13.1871L7.84766 14.2098L9.01024 14.4995C9.14149 14.5324 9.27114 14.5662 9.39938 14.5997L9.39948 14.5997C9.48248 14.6214 9.56488 14.6429 9.64673 14.6639L9.2771 16.1482L10.1693 16.3708L10.5356 14.9025C10.779 14.9686 11.0156 15.0297 11.2471 15.0872L10.8823 16.5487L11.7755 16.7713L12.1451 15.2899C13.6682 15.5781 14.8137 15.4619 15.2953 14.0846C15.6838 12.9754 15.2762 12.3356 14.4749 11.9182C15.0585 11.7831 15.4981 11.3992 15.6153 10.6063H15.6156ZM13.5746 13.4679C13.321 14.4859 11.7273 14.0647 10.9987 13.8722L10.9986 13.8722C10.9334 13.8549 10.8751 13.8395 10.8253 13.8271L11.3158 11.8609C11.3767 11.8761 11.451 11.8928 11.5352 11.9117C12.289 12.0808 13.8336 12.4275 13.5748 13.4679H13.5746ZM11.6867 10.9993C12.2946 11.1615 13.6198 11.515 13.8506 10.5902C14.0866 9.64416 12.7981 9.35901 12.1688 9.21974C12.098 9.20409 12.0356 9.19028 11.9846 9.17758L11.5399 10.9609C11.582 10.9714 11.6314 10.9845 11.6867 10.9993Z" fill="white"/>
</svg>
