<svg width="24" height="24" viewBox="0 0 24 24" fill="none" xmlns="http://www.w3.org/2000/svg">
<path d="M23.9359 12.0002C23.9359 18.5927 18.5917 23.937 11.9993 23.937C5.40674 23.937 0.0625 18.5927 0.0625 12.0002C0.0625 5.40772 5.40674 0.0634766 11.9993 0.0634766C18.5917 0.0634766 23.9359 5.40772 23.9359 12.0002Z" fill="#627FEB"/>
<g opacity="0.8">
<path d="M11.9604 6.46191L11.8867 6.71251V13.9843L11.9604 14.0579L15.3359 12.0627L11.9604 6.46191Z" fill="white"/>
<path d="M11.9614 6.46191L8.58594 12.0627L11.9614 14.058V10.5284V6.46191Z" fill="white"/>
<path d="M11.9595 15.1564L11.918 15.207V17.7974L11.9595 17.9187L15.337 13.1621L11.9595 15.1564Z" fill="white"/>
<path d="M11.9614 17.9188V15.1564L8.58594 13.1621L11.9614 17.9188Z" fill="white"/>
<path d="M11.9609 14.0578L15.3364 12.0626L11.9609 10.5283V14.0578Z" fill="white"/>
<path d="M8.58594 12.0626L11.9614 14.0578V10.5283L8.58594 12.0626Z" fill="white"/>
</g>
</svg>
