<svg width="20" height="20" viewBox="0 0 20 20" fill="none" xmlns="http://www.w3.org/2000/svg">
<rect width="20" height="20" rx="10" fill="#0A0E12"/>
<path d="M15.1825 12.6117L13.4535 14.4038C13.4159 14.4428 13.3704 14.4738 13.3199 14.495C13.2693 14.5162 13.2148 14.5272 13.1597 14.5271H4.96312C4.92401 14.5271 4.88575 14.5161 4.85305 14.4954C4.82034 14.4746 4.79462 14.4451 4.77903 14.4105C4.76344 14.3758 4.75867 14.3375 4.7653 14.3002C4.77193 14.263 4.78968 14.2284 4.81636 14.2008L6.54673 12.4086C6.58422 12.3698 6.62954 12.3388 6.67991 12.3176C6.73029 12.2964 6.78463 12.2854 6.83959 12.2853H15.0357C15.0748 12.2853 15.1131 12.2964 15.1458 12.3171C15.1785 12.3378 15.2042 12.3673 15.2199 12.402C15.2354 12.4367 15.2402 12.475 15.2336 12.5122C15.2269 12.5495 15.2092 12.584 15.1825 12.6117ZM13.4535 9.00277C13.4159 8.96384 13.3704 8.9328 13.3199 8.91159C13.2693 8.89038 13.2148 8.87945 13.1597 8.87948H4.96312C4.92401 8.87948 4.88575 8.89052 4.85305 8.91125C4.82034 8.93198 4.79462 8.96148 4.77903 8.99614C4.76344 9.03081 4.75867 9.06913 4.7653 9.10638C4.77193 9.14362 4.78968 9.17819 4.81636 9.20583L6.54673 10.998C6.58422 11.0368 6.62954 11.0678 6.67991 11.089C6.73029 11.1102 6.78463 11.1212 6.83959 11.1213H15.0357C15.0748 11.1213 15.1131 11.1102 15.1458 11.0895C15.1785 11.0688 15.2042 11.0393 15.2199 11.0046C15.2354 10.97 15.2402 10.9316 15.2336 10.8944C15.2269 10.8571 15.2092 10.8226 15.1825 10.7949L13.4535 9.00277ZM4.96312 7.71545H13.1597C13.2148 7.71547 13.2693 7.70455 13.3199 7.68333C13.3704 7.66212 13.4159 7.63108 13.4535 7.59215L15.1825 5.79999C15.2092 5.77235 15.2269 5.73779 15.2336 5.70054C15.2402 5.66329 15.2354 5.62497 15.2199 5.59031C15.2042 5.55564 15.1785 5.52613 15.1458 5.5054C15.1131 5.48468 15.0748 5.47363 15.0357 5.47363H6.83959C6.78463 5.47372 6.73029 5.48471 6.67991 5.50592C6.62954 5.52713 6.58422 5.55811 6.54673 5.59693L4.81681 7.3891C4.79015 7.4167 4.77241 7.45124 4.76576 7.48844C4.75911 7.52565 4.76385 7.56393 4.77938 7.59858C4.79492 7.63323 4.82058 7.66274 4.85321 7.6835C4.88585 7.70426 4.92405 7.71536 4.96312 7.71545Z" fill="url(#paint0_linear_417_9999)"/>
<defs>
<linearGradient id="paint0_linear_417_9999" x1="5.64652" y1="14.7429" x2="13.9153" y2="5.09813" gradientUnits="userSpaceOnUse">
<stop offset="0.08" stop-color="#9945FF"/>
<stop offset="0.3" stop-color="#8752F3"/>
<stop offset="0.5" stop-color="#5497D5"/>
<stop offset="0.6" stop-color="#43B4CA"/>
<stop offset="0.72" stop-color="#28E0B9"/>
<stop offset="0.97" stop-color="#19FB9B"/>
</linearGradient>
</defs>
</svg>
