<svg width="24" height="24" viewBox="0 0 24 24" fill="none" xmlns="http://www.w3.org/2000/svg">
<path d="M23.9359 12.0002C23.9359 18.5927 18.5917 23.937 11.9993 23.937C5.40674 23.937 0.0625 18.5927 0.0625 12.0002C0.0625 5.40772 5.40674 0.0634766 11.9993 0.0634766C18.5917 0.0634766 23.9359 5.40772 23.9359 12.0002Z" fill="#00A478"/>
<path d="M10.7738 11.7908V9.70254H7.94141V7.87207H15.8561V9.72832H13.0238V11.7908H10.7738Z" fill="white"/>
<path fillRule="evenodd" clipRule="evenodd" d="M6.72266 12.023C6.72266 11.327 8.99913 10.7598 11.8315 10.7598C14.6638 10.7598 16.9403 11.327 16.9403 12.023C16.9403 12.7191 14.6638 13.2863 11.8315 13.2863C8.99913 13.2863 6.72266 12.7191 6.72266 12.023ZM16.5168 12.023C16.3315 11.7652 14.7962 10.966 11.8315 10.966C8.86677 10.966 7.33148 11.7395 7.14619 12.023C7.33148 12.2809 8.86677 12.6676 11.8315 12.6676C14.8227 12.6676 16.3315 12.2809 16.5168 12.023Z" fill="white"/>
<path d="M13.0243 12.4357V10.992C12.6537 10.9662 12.2567 10.9404 11.8596 10.9404C11.489 10.9404 11.1449 10.9404 10.8008 10.9662V12.41C11.1184 12.41 11.489 12.4357 11.8596 12.4357C12.2567 12.4615 12.6537 12.4615 13.0243 12.4357Z" fill="white"/>
<path d="M11.8323 13.2869C11.4617 13.2869 11.1176 13.2869 10.7734 13.2611V17.1025H12.997V13.2354C12.6264 13.2611 12.2293 13.2869 11.8323 13.2869Z" fill="white"/>
</svg>
