<svg width="98" height="98" viewBox="0 0 98 98" fill="none" xmlns="http://www.w3.org/2000/svg">
<g opacity="0.5" clip-path="url(#clip0_15218_34549)">
<path d="M33.81 2.19888C33.9967 1.56389 34.384 1.00645 34.914 0.61005C35.444 0.213647 36.0882 -0.000387017 36.75 5.25351e-07H61.25C61.735 0.000368686 62.213 0.115922 62.6446 0.337147C63.0762 0.558372 63.4491 0.878943 63.7326 1.27247C64.0161 1.666 64.202 2.12122 64.2752 2.60068C64.3483 3.08013 64.3065 3.5701 64.1533 4.03025L53.2508 36.75H76.5625C77.136 36.7496 77.6981 36.9102 78.1848 37.2137C78.6715 37.5171 79.0632 37.951 79.3153 38.4661C79.5675 38.9812 79.6699 39.5568 79.6109 40.1273C79.552 40.6977 79.334 41.2402 78.9819 41.6929L36.1069 96.8179C35.6677 97.3853 35.0431 97.7805 34.3423 97.9345C33.6414 98.0885 32.9088 97.9914 32.2721 97.6604C31.6355 97.3293 31.1354 96.7852 30.8589 96.123C30.5825 95.4608 30.5474 94.7226 30.7598 94.0371L41.7909 58.1875H21.4375C20.9614 58.1878 20.4918 58.077 20.0659 57.8641C19.6401 57.6511 19.2697 57.3418 18.9844 56.9607C18.699 56.5796 18.5064 56.1371 18.4219 55.6686C18.3373 55.2 18.3633 54.7182 18.4975 54.2614L33.81 2.19888Z" fill="url(#paint0_linear_15218_34549)"/>
</g>
<defs>
<linearGradient id="paint0_linear_15218_34549" x1="22.31" y1="11.137" x2="87.2099" y2="20.5677" gradientUnits="userSpaceOnUse">
<stop stop-color="#EBEDEF"/>
<stop offset="1" stop-color="#D9DBE3"/>
</linearGradient>
<clipPath id="clip0_15218_34549">
<rect width="98" height="98" fill="white"/>
</clipPath>
</defs>
</svg>
