<svg width="24" height="24" viewBox="0 0 24 24" fill="none" xmlns="http://www.w3.org/2000/svg">
<path d="M23.9349 12.0002C23.9349 18.5927 18.5907 23.937 11.9982 23.937C5.4057 23.937 0.0614624 18.5927 0.0614624 12.0002C0.0614624 5.40772 5.4057 0.0634766 11.9982 0.0634766C18.5906 0.0634766 23.9349 5.40772 23.9349 12.0002Z" fill="#627FEB"/>
<g opacity="0.8">
<path d="M11.9601 6.46143L11.8864 6.71203V13.9838L11.9601 14.0574L15.3356 12.0622L11.9601 6.46143Z" fill="white"/>
<path d="M11.9601 6.46143L8.58459 12.0622L11.9601 14.0575V10.5279V6.46143Z" fill="white"/>
<path d="M11.9601 15.1556L11.9185 15.2063V17.7966L11.9601 17.918L15.3376 13.1614L11.9601 15.1556Z" fill="white"/>
<path d="M11.9601 17.918V15.1556L8.58459 13.1614L11.9601 17.918Z" fill="white"/>
<path d="M11.9601 14.0575L15.3355 12.0623L11.9601 10.5281V14.0575Z" fill="white"/>
<path d="M8.58459 12.0621L11.96 14.0573V10.5278L8.58459 12.0621Z" fill="white"/>
</g>
</svg>
