<svg width="133" height="32" viewBox="0 0 133 32" fill="none" xmlns="http://www.w3.org/2000/svg">
<g clip-path="url(#clip0_14822_7964)">
<mask id="mask0_14822_7964" style="mask-type:luminance" maskUnits="userSpaceOnUse" x="0" y="0" width="133" height="32">
<path d="M132.606 0H0.247742V31.6658H132.606V0Z" fill="white"/>
</mask>
<g mask="url(#mask0_14822_7964)">
<path d="M0.886855 0H5.10665L4.46753 4.21978H0.247742L0.886855 0Z" fill="#F5BB00"/>
<path d="M6.83461 0.00173021L9.71985 0.000676376V0H17.8078C22.0804 0 25.544 3.46364 25.544 7.73628C25.544 9.53447 24.9305 11.1894 23.9014 12.5031C26.5179 13.7437 28.3273 16.4092 28.3273 19.4974C28.3273 23.77 24.8637 27.2336 20.5911 27.2336H10.2819L11.9078 23.0139H20.3926C22.3347 23.0139 23.9091 21.4395 23.9091 19.4974C23.9091 17.5553 22.3347 15.9809 20.3926 15.9809H14.6176L16.4394 11.2528H17.6866C19.6286 11.2528 21.203 9.67836 21.203 7.73628C21.203 5.79416 19.6286 4.21979 17.6866 4.21979H10.9998L9.94878 11.2528H14.6812L6.81594 31.6658L9.18855 15.8281L4.46753 15.8267L6.83461 0.00173021Z" fill="#F5BB00"/>
<path d="M6.35973 23.0099H2.13996L1.50085 27.2297H5.72065L6.35973 23.0099Z" fill="#F5BB00"/>
<path d="M122.636 27.8117C116.002 27.8117 111.991 24.1009 111.541 18.5536L116.489 18.2537C116.976 21.7021 119 23.6136 122.711 23.6136C125.822 23.6136 127.659 22.4517 127.659 20.1653C127.659 18.1038 126.609 16.8669 121.174 15.5925C114.578 14.0932 112.104 12.2191 112.104 7.87123C112.104 3.22345 115.702 0 121.699 0C128.033 0 131.557 3.71073 132.119 8.84575L127.209 9.07063C126.872 6.18454 124.96 4.19798 121.624 4.19798C118.776 4.19798 117.051 5.62229 117.051 7.6838C117.051 9.85776 118.325 10.6824 123.048 11.7694C130.207 13.3061 132.606 15.9298 132.606 19.9029C132.606 24.7756 128.633 27.8117 122.636 27.8117Z" fill="#F7F7F7"/>
<path d="M96.3341 27.2119V4.83522H88.2753V0.599731H109.303V4.83522H101.207V27.2119H96.3341Z" fill="#F7F7F7"/>
<path d="M64.8091 27.2119L74.4046 0.599731H80.364L89.9594 27.2119H84.8619L82.6504 20.915H72.1182L69.9066 27.2119H64.8091ZM73.5423 16.7545H81.2262L77.4031 5.50989L73.5423 16.7545Z" fill="#F7F7F7"/>
<path d="M53.4555 27.8117C46.8213 27.8117 42.8104 24.1009 42.3606 18.5536L47.3083 18.2537C47.7957 21.7021 49.8198 23.6136 53.5304 23.6136C56.6414 23.6136 58.478 22.4517 58.478 20.1653C58.478 18.1038 57.4284 16.8669 51.9937 15.5925C45.3967 14.0932 42.9229 12.2191 42.9229 7.87123C42.9229 3.22345 46.5213 0 52.5183 0C58.8529 0 62.3761 3.71073 62.9384 8.84575L58.0283 9.07063C57.6907 6.18454 55.7791 4.19798 52.4434 4.19798C49.5947 4.19798 47.8706 5.62229 47.8706 7.6838C47.8706 9.85776 49.145 10.6824 53.8676 11.7694C61.0268 13.3061 63.4257 15.9298 63.4257 19.9029C63.4257 24.7756 59.4525 27.8117 53.4555 27.8117Z" fill="#F7F7F7"/>
<path d="M32.9042 27.2119V0.599731H37.7769V27.2119H32.9042Z" fill="#F7F7F7"/>
</g>
</g>
<defs>
<clipPath id="clip0_14822_7964">
<rect width="132.923" height="32" fill="white"/>
</clipPath>
</defs>
</svg>
