<svg width="65" height="66" viewBox="0 0 65 66" fill="none" xmlns="http://www.w3.org/2000/svg">
<path d="M12.0807 8.18181H18.5759L17.5922 14.7273H11.097L12.0807 8.18181Z" fill="white"/>
<path d="M21.0054 8.1846L25.4464 8.18296V8.18193H37.8956C44.4722 8.18193 49.8036 13.5545 49.8036 20.1819C49.8036 22.9712 48.8592 25.5382 47.2751 27.5759C51.3025 29.5002 54.0876 33.6349 54.0876 38.425C54.0876 45.0524 48.7563 50.425 42.1797 50.425H26.3115L28.8142 43.8795H41.8743C44.8637 43.8795 47.287 41.4374 47.287 38.425C47.287 35.4125 44.8637 32.9704 41.8743 32.9704H32.9852L35.7894 25.6365H37.709C40.6984 25.6365 43.1217 23.1944 43.1217 20.1819C43.1217 17.1694 40.6984 14.7274 37.709 14.7274H27.4166L25.7988 25.6365H33.083L20.9766 57.3001L24.6286 32.7334L17.3618 32.7313L21.0054 8.1846Z" fill="white"/>
<path d="M20.5047 44.0606H14.0095L13.0257 50.6061H19.521L20.5047 44.0606Z" fill="white"/>
</svg>
