<svg width="3" height="4" viewBox="0 0 3 4" fill="none" xmlns="http://www.w3.org/2000/svg">
<path d="M0 3.83615C0 3.8353 0 3.83445 0 3.83359C0 3.83445 0 3.8353 0 3.83615ZM0.00914038 3.48931C0.00914038 3.48761 0.00914038 3.4859 0.00914038 3.48419C0.00914038 3.4859 0.00914038 3.48761 0.00914038 3.48931ZM0.00977612 3.47928C0.00977612 3.47587 0.00977612 3.47267 0.00977612 3.46925C0.00977612 3.47267 0.00977612 3.47587 0.00977612 3.47928ZM0.00977612 3.46669C0.132855 1.27402 1.32027 0.00747078 3.00001 5.44652e-07C2.27174 0.00426907 1.63743 0.244389 1.14086 0.69368V0.692827L1.13491 0.6988C1.08262 0.746184 1.03288 0.796343 0.983775 0.847995C0.425777 1.44072 0.0737599 2.32863 0.00977612 3.46669Z" fill="#404040"/>
</svg>
