<svg width="255" height="255" viewBox="0 0 255 255" fill="none" xmlns="http://www.w3.org/2000/svg">
<path d="M179.346 143.139V248.931C164.965 240.614 151.296 235.606 138.385 233.929C125.474 232.229 113.965 233.929 103.926 239.029C93.8636 222.327 82.3312 207.326 69.3515 194.07C56.3488 180.792 42.7257 170.041 28.4824 161.816V56.0259C42.5878 64.1813 56.1418 74.9326 69.1445 88.2799C70.9364 90.1407 72.7053 92.0245 74.4283 93.9313C85.3175 105.854 95.1501 119.109 103.926 133.72C114.126 128.551 125.704 126.783 138.707 128.437C151.686 130.091 165.24 134.984 179.346 143.139Z" stroke="#F4BA01" stroke-width="1.68" stroke-linecap="round" stroke-linejoin="round"/>
<path d="M225.292 120.167V225.957L179.346 248.93V143.14L225.292 120.167Z" stroke="#F4BA01" stroke-width="1.68" stroke-linecap="round" stroke-linejoin="round"/>
<path d="M225.292 120.167L179.346 143.139C165.24 134.984 151.686 130.091 138.707 128.437C125.704 126.783 114.126 128.552 103.926 133.721L149.872 110.748C160.072 105.579 171.65 103.81 184.653 105.464C197.632 107.118 211.186 112.011 225.292 120.167Z" stroke="#F4BA01" stroke-width="1.68" stroke-linecap="round" stroke-linejoin="round"/>
<path d="M149.872 110.747L103.926 133.72C95.1501 119.109 85.3175 105.854 74.4283 93.9311C72.7053 92.0244 70.9364 90.1406 69.1445 88.2798C56.1418 74.9325 42.5878 64.1811 28.4824 56.0257L74.4283 33.0527C74.8188 33.2825 75.1864 33.4892 75.5769 33.7419C75.1634 34.2244 74.7729 34.7298 74.4283 35.2811C71.7175 39.2554 70.385 44.6081 70.385 51.3622C70.385 58.1163 71.7175 65.0539 74.4283 72.1295C75.9215 76.1268 77.8744 80.1703 80.2407 84.2365C86.8109 95.5622 94.6907 103.878 103.926 109.208C113.138 114.515 121.041 115.319 127.588 111.574L144.955 102.891C146.632 105.464 148.264 108.082 149.872 110.747Z" stroke="#F4BA01" stroke-width="1.68" stroke-linecap="round" stroke-linejoin="round"/>
<path d="M137.445 90.0944C137.445 90.6917 137.445 91.2892 137.399 91.8865C137.055 101.466 133.792 108.037 127.59 111.574C121.042 115.319 113.14 114.515 103.927 109.208C94.6924 103.878 86.8124 95.5622 80.2421 84.2365C77.8759 80.1703 75.9232 76.1268 74.43 72.1295C71.7192 65.0538 70.3867 58.1392 70.3867 51.3622C70.3867 44.5852 71.7192 39.2554 74.43 35.2811C74.7746 34.7298 75.1651 34.2243 75.5786 33.7419C76.8881 32.2027 78.4502 30.9162 80.2421 29.8825L81.8962 29.0552C88.1219 26.2984 95.4505 27.3782 103.927 32.2484C109.395 35.3957 114.38 39.6228 118.906 44.8836C122.03 48.4903 124.925 52.6025 127.59 57.2201C130.806 62.7565 133.241 68.2241 134.872 73.5998C136.595 79.1822 137.445 84.6957 137.445 90.0944Z" stroke="#F4BA01" stroke-width="1.68" stroke-linecap="round" stroke-linejoin="round"/>
<path d="M183.389 67.1219C183.389 77.6894 180.104 84.857 173.534 88.6016L171.489 89.6124L144.955 102.891L127.588 111.575C133.791 108.037 137.053 101.466 137.398 91.8867C137.444 91.2894 137.443 90.6921 137.443 90.0948C137.443 84.6962 136.593 79.1827 134.87 73.6002C133.239 68.2246 130.804 62.757 127.588 57.2205C124.923 52.6029 122.029 48.4908 118.904 44.884C114.379 39.6232 109.393 35.3962 103.926 32.2489C95.4488 27.3786 88.1202 26.2989 81.8945 29.0556L126.187 6.90973C132.757 3.16513 140.637 3.96912 149.872 9.27587C159.084 14.6056 166.987 22.9218 173.534 34.2475C180.104 45.5732 183.389 56.5313 183.389 67.1219Z" stroke="#F4BA01" stroke-width="1.68" stroke-linecap="round" stroke-linejoin="round"/>
<path d="M81.8962 29.0554L80.2422 29.8827" stroke="#F4BA01" stroke-width="1.68" stroke-linecap="round" stroke-linejoin="round"/>
<path d="M169.469 90.2791L169.377 90.325" stroke="#F4BA01" stroke-width="1.68" stroke-linecap="round" stroke-linejoin="round"/>
</svg>
