<svg width="700" height="176" viewBox="0 0 700 176" fill="none" xmlns="http://www.w3.org/2000/svg">
<path d="M16.3312 40.1251C13.0866 40.1251 10.2565 39.5663 7.84111 38.4487C5.46173 37.3311 3.60509 35.7629 2.2712 33.744C0.937303 31.7252 0.180228 29.3458 -2.82107e-05 26.6059L8.27373 26.2274C8.45398 27.7415 8.8866 29.0394 9.57157 30.1209C10.2565 31.1664 11.1578 31.9595 12.2754 32.5003C13.4291 33.041 14.817 33.3114 16.4393 33.3114C18.5303 33.3114 20.1166 32.9329 21.1981 32.1758C22.3157 31.4187 22.8745 30.3192 22.8745 28.8771C22.8745 27.9398 22.6582 27.1467 22.2255 26.4977C21.7929 25.8128 20.9457 25.1999 19.6839 24.6591C18.4582 24.1184 16.6737 23.5776 14.3303 23.0368C10.9415 22.2798 8.27373 21.4326 6.32696 20.4952C4.41625 19.5579 2.99222 18.3862 2.05489 16.9802C1.15361 15.5742 0.702971 13.7717 0.702971 11.5725C0.702971 9.30131 1.27979 7.30047 2.43343 5.57001C3.58707 3.8035 5.24542 2.43356 7.4085 1.46017C9.57157 0.486792 12.1312 0.000101114 15.0874 0.000101114C18.1878 0.000101114 20.8376 0.558894 23.0367 1.67648C25.2719 2.75802 27.0204 4.27217 28.2822 6.21894C29.5439 8.1657 30.319 10.4189 30.6075 12.9785L22.3878 13.4112C22.2436 12.0773 21.865 10.9236 21.2522 9.95024C20.6393 8.9408 19.7921 8.1657 18.7106 7.62493C17.6651 7.08416 16.4213 6.81378 14.9793 6.81378C13.1406 6.81378 11.6806 7.22837 10.599 8.05755C9.55355 8.88673 9.0308 9.96826 9.0308 11.3022C9.0308 12.2755 9.26514 13.0687 9.7338 13.6815C10.2025 14.2944 10.9956 14.8352 12.1132 15.3038C13.2308 15.7725 14.8711 16.2231 17.0342 16.6558C20.5311 17.3768 23.3071 18.2781 25.362 19.3596C27.453 20.4411 28.9491 21.739 29.8504 23.2531C30.7517 24.7312 31.2023 26.4797 31.2023 28.4986C31.2023 30.878 30.5894 32.9509 29.3637 34.7174C28.174 36.4479 26.4616 37.7818 24.2264 38.7191C21.9912 39.6564 19.3595 40.1251 16.3312 40.1251ZM50.6543 39.9088C47.7342 39.9088 45.1565 39.2959 42.9213 38.0702C40.7222 36.8084 39.0278 35.0419 37.8381 32.7707C36.6484 30.4634 36.0536 27.7956 36.0536 24.7673C36.0536 21.739 36.6484 19.0892 37.8381 16.818C39.0278 14.5107 40.7222 12.7442 42.9213 11.5185C45.1205 10.2567 47.6801 9.62578 50.6003 9.62578C53.4483 9.62578 55.9358 10.2567 58.0629 11.5185C60.2259 12.7803 61.8843 14.6008 63.0379 16.9802C64.1916 19.3236 64.7684 22.0995 64.7684 25.3081V26.9304H44.4355C44.5076 29.1655 45.1024 30.8599 46.22 32.0136C47.3376 33.1672 48.8698 33.744 50.8166 33.744C52.1865 33.744 53.3221 33.4556 54.2234 32.8788C55.1607 32.302 55.8277 31.4187 56.2242 30.229L64.3898 30.7157C63.5967 33.5998 61.9744 35.853 59.5229 37.4753C57.1075 39.0976 54.1513 39.9088 50.6543 39.9088ZM56.4946 21.9553C56.3865 19.9004 55.8097 18.3321 54.7642 17.2506C53.7187 16.1691 52.3307 15.6283 50.6003 15.6283C48.8698 15.6283 47.4638 16.1871 46.3823 17.3047C45.3007 18.4223 44.6518 19.9725 44.4355 21.9553H56.4946ZM78.8562 39.9088C75.7919 39.9088 73.3224 39.2058 71.4477 37.7998C69.6091 36.3938 68.6898 34.4651 68.6898 32.0136C68.6898 29.49 69.4649 27.5252 71.0151 26.1192C72.5653 24.7132 74.9627 23.6858 78.2073 23.0368L87.5626 21.1982C87.5626 19.3236 87.13 17.9176 86.2648 16.9802C85.4356 16.0068 84.2098 15.5202 82.5875 15.5202C81.0734 15.5202 79.8837 15.8807 79.0185 16.6017C78.1532 17.2867 77.5764 18.3141 77.288 19.6841L69.1765 19.3055C69.7173 16.133 71.1413 13.7356 73.4486 12.1133C75.7558 10.455 78.8022 9.62578 82.5875 9.62578C86.9137 9.62578 90.1763 10.6532 92.3754 12.7082C94.5746 14.7631 95.6741 17.7734 95.6741 21.739V31.635C95.6741 32.4282 95.8003 32.9689 96.0527 33.2574C96.305 33.5458 96.7196 33.69 97.2964 33.69H98.1076V39.2599C97.8192 39.332 97.3866 39.4041 96.8097 39.4762C96.269 39.5483 95.7282 39.5843 95.1874 39.5843C93.2046 39.5843 91.6184 39.0796 90.4287 38.0702C89.275 37.0608 88.6982 35.3303 88.6982 32.8788L89.4012 33.4196C88.8605 35.4024 87.6708 36.9887 85.8322 38.1783C83.9935 39.332 81.6682 39.9088 78.8562 39.9088ZM80.803 34.3389C82.1369 34.3389 83.3086 34.0865 84.318 33.5818C85.3635 33.041 86.1566 32.2659 86.6974 31.2565C87.2742 30.2471 87.5626 29.0574 87.5626 27.6874V26.2814L80.9652 27.6874C79.6313 27.9398 78.6399 28.3724 77.991 28.9853C77.3421 29.5621 77.0176 30.3192 77.0176 31.2565C77.0176 32.2659 77.3241 33.041 77.9369 33.5818C78.5859 34.0865 79.5412 34.3389 80.803 34.3389ZM103.05 10.2747H110.35L110.621 17.2506L109.864 16.9261C110.26 15.412 110.855 14.1142 111.648 13.0326C112.478 11.915 113.469 11.0678 114.623 10.491C115.776 9.91419 117.038 9.62578 118.408 9.62578C120.787 9.62578 122.734 10.3288 124.248 11.7348C125.762 13.1047 126.736 14.9974 127.168 17.4128L126.141 17.4669C126.646 14.9433 127.655 13.0146 129.169 11.6807C130.719 10.3107 132.612 9.62578 134.847 9.62578C136.83 9.62578 138.561 10.0404 140.039 10.8695C141.517 11.6987 142.634 12.9425 143.391 14.6008C144.185 16.2592 144.581 18.26 144.581 20.6034V39.2599H136.47V22.8746C136.47 20.5673 136.109 18.8549 135.388 17.7373C134.703 16.6197 133.604 16.0609 132.089 16.0609C131.116 16.0609 130.287 16.3313 129.602 16.8721C128.917 17.4128 128.376 18.206 127.98 19.2515C127.619 20.2969 127.439 21.5407 127.439 22.9828V39.2599H120.138V22.9828C120.138 20.6755 119.796 18.945 119.111 17.7914C118.462 16.6377 117.362 16.0609 115.812 16.0609C114.839 16.0609 113.992 16.3313 113.271 16.8721C112.586 17.4128 112.063 18.206 111.702 19.2515C111.342 20.2969 111.162 21.5407 111.162 22.9828V39.2599H103.05V10.2747ZM158.836 39.2599C156.384 39.2599 154.51 38.647 153.212 37.4213C151.914 36.1955 151.265 34.2848 151.265 31.6891V0.865329H159.377V30.8239C159.377 31.6891 159.575 32.302 159.971 32.6625C160.368 33.023 160.945 33.2033 161.702 33.2033H163.649V39.2599H158.836ZM181.727 39.9088C178.807 39.9088 176.229 39.2959 173.994 38.0702C171.795 36.8084 170.101 35.0419 168.911 32.7707C167.721 30.4634 167.127 27.7956 167.127 24.7673C167.127 21.739 167.721 19.0892 168.911 16.818C170.101 14.5107 171.795 12.7442 173.994 11.5185C176.193 10.2567 178.753 9.62578 181.673 9.62578C184.521 9.62578 187.009 10.2567 189.136 11.5185C191.299 12.7803 192.957 14.6008 194.111 16.9802C195.265 19.3236 195.841 22.0995 195.841 25.3081V26.9304H175.508C175.581 29.1655 176.175 30.8599 177.293 32.0136C178.411 33.1672 179.943 33.744 181.889 33.744C183.259 33.744 184.395 33.4556 185.296 32.8788C186.234 32.302 186.901 31.4187 187.297 30.229L195.463 30.7157C194.67 33.5998 193.047 35.853 190.596 37.4753C188.18 39.0976 185.224 39.9088 181.727 39.9088ZM187.568 21.9553C187.459 19.9004 186.883 18.3321 185.837 17.2506C184.792 16.1691 183.404 15.6283 181.673 15.6283C179.943 15.6283 178.537 16.1871 177.455 17.3047C176.374 18.4223 175.725 19.9725 175.508 21.9553H187.568ZM213.555 39.9088C210.671 39.9088 208.201 39.4942 206.146 38.665C204.091 37.8359 202.523 36.7002 201.442 35.2582C200.396 33.7801 199.801 32.0677 199.657 30.1209L207.877 29.8505C208.129 31.2565 208.706 32.338 209.607 33.0951C210.545 33.8161 211.878 34.1767 213.609 34.1767C215.087 34.1767 216.223 33.9423 217.016 33.4737C217.809 32.9689 218.205 32.2479 218.205 31.3106C218.205 30.6617 218.043 30.1389 217.719 29.7424C217.43 29.3458 216.854 29.0033 215.988 28.7149C215.159 28.3904 213.933 28.102 212.311 27.8497C209.247 27.345 206.849 26.7321 205.119 26.0111C203.388 25.254 202.163 24.3166 201.442 23.1991C200.721 22.0454 200.36 20.6214 200.36 18.927C200.36 16.0789 201.46 13.8257 203.659 12.1674C205.858 10.473 209.048 9.62578 213.23 9.62578C217.16 9.62578 220.224 10.5271 222.423 12.3296C224.659 14.1322 225.956 16.5476 226.317 19.5759L218.205 19.9004C218.025 18.4944 217.484 17.3948 216.583 16.6017C215.718 15.7725 214.564 15.3579 213.122 15.3579C211.716 15.3579 210.617 15.6644 209.824 16.2772C209.066 16.854 208.688 17.6291 208.688 18.6025C208.688 19.3236 208.85 19.9184 209.175 20.3871C209.535 20.8197 210.094 21.1802 210.851 21.4686C211.644 21.757 212.726 21.9913 214.096 22.1716C217.196 22.6403 219.648 23.2531 221.45 24.0102C223.253 24.7312 224.55 25.6686 225.344 26.8222C226.137 27.9758 226.533 29.4179 226.533 31.1484C226.533 33.9243 225.362 36.0874 223.018 37.6376C220.711 39.1517 217.557 39.9088 213.555 39.9088ZM244.237 39.9088C241.353 39.9088 238.884 39.4942 236.829 38.665C234.774 37.8359 233.205 36.7002 232.124 35.2582C231.078 33.7801 230.484 32.0677 230.339 30.1209L238.559 29.8505C238.811 31.2565 239.388 32.338 240.29 33.0951C241.227 33.8161 242.561 34.1767 244.291 34.1767C245.769 34.1767 246.905 33.9423 247.698 33.4737C248.491 32.9689 248.888 32.2479 248.888 31.3106C248.888 30.6617 248.725 30.1389 248.401 29.7424C248.113 29.3458 247.536 29.0033 246.671 28.7149C245.841 28.3904 244.616 28.102 242.993 27.8497C239.929 27.345 237.532 26.7321 235.801 26.0111C234.071 25.254 232.845 24.3166 232.124 23.1991C231.403 22.0454 231.042 20.6214 231.042 18.927C231.042 16.0789 232.142 13.8257 234.341 12.1674C236.54 10.473 239.731 9.62578 243.913 9.62578C247.842 9.62578 250.907 10.5271 253.106 12.3296C255.341 14.1322 256.639 16.5476 256.999 19.5759L248.888 19.9004C248.707 18.4944 248.167 17.3948 247.265 16.6017C246.4 15.7725 245.247 15.3579 243.805 15.3579C242.399 15.3579 241.299 15.6644 240.506 16.2772C239.749 16.854 239.37 17.6291 239.37 18.6025C239.37 19.3236 239.532 19.9184 239.857 20.3871C240.217 20.8197 240.776 21.1802 241.533 21.4686C242.326 21.757 243.408 21.9913 244.778 22.1716C247.878 22.6403 250.33 23.2531 252.132 24.0102C253.935 24.7312 255.233 25.6686 256.026 26.8222C256.819 27.9758 257.216 29.4179 257.216 31.1484C257.216 33.9243 256.044 36.0874 253.701 37.6376C251.393 39.1517 248.239 39.9088 244.237 39.9088ZM270.211 39.2599C267.759 39.2599 265.885 38.647 264.587 37.4213C263.289 36.1955 262.64 34.2848 262.64 31.6891V0.865329H270.752V30.8239C270.752 31.6891 270.95 32.302 271.347 32.6625C271.743 33.023 272.32 33.2033 273.077 33.2033H275.024V39.2599H270.211ZM280.864 41.3148H284.703C285.604 41.3148 286.271 41.1706 286.704 40.8822C287.173 40.6298 287.533 40.1612 287.785 39.4762L288.434 37.7998H286.217L275.997 10.2747H284.325L290.922 30.229L297.195 10.2747H305.469L294.329 42.0178C293.644 43.9285 292.688 45.2985 291.463 46.1276C290.273 46.9568 288.579 47.3714 286.379 47.3714H280.864V41.3148ZM339.129 40.1251C335.632 40.1251 332.513 39.332 329.774 37.7457C327.034 36.1595 324.907 33.8522 323.393 30.8239C321.878 27.7956 321.121 24.2265 321.121 20.1167C321.121 16.0789 321.86 12.5459 323.338 9.51762C324.817 6.45327 326.926 4.10994 329.665 2.48764C332.405 0.829279 335.596 0.000101114 339.237 0.000101114C344.176 0.000101114 348.052 1.20782 350.864 3.62325C353.676 6.03868 355.514 9.58973 356.379 14.2764L347.835 14.6008C347.367 12.1494 346.393 10.2567 344.915 8.92278C343.473 7.58888 341.58 6.92193 339.237 6.92193C337.218 6.92193 335.488 7.4627 334.046 8.54424C332.604 9.62578 331.486 11.158 330.693 13.1408C329.936 15.1236 329.557 17.4489 329.557 20.1167C329.557 22.8205 329.936 25.1639 330.693 27.1467C331.486 29.0934 332.604 30.5896 334.046 31.635C335.524 32.6805 337.236 33.2033 339.183 33.2033C341.743 33.2033 343.743 32.5003 345.185 31.0943C346.628 29.6522 347.547 27.5973 347.943 24.9295L356.542 25.254C355.748 30.0127 353.874 33.69 350.918 36.2857C347.961 38.8453 344.032 40.1251 339.129 40.1251ZM375.276 39.9088C372.32 39.9088 369.724 39.2959 367.489 38.0702C365.29 36.8084 363.578 35.0419 362.352 32.7707C361.162 30.4634 360.567 27.7956 360.567 24.7673C360.567 21.739 361.162 19.0892 362.352 16.818C363.578 14.5107 365.29 12.7442 367.489 11.5185C369.724 10.2567 372.32 9.62578 375.276 9.62578C378.196 9.62578 380.756 10.2567 382.955 11.5185C385.19 12.7442 386.921 14.5107 388.147 16.818C389.372 19.0892 389.985 21.739 389.985 24.7673C389.985 27.7956 389.372 30.4634 388.147 32.7707C386.921 35.0419 385.19 36.8084 382.955 38.0702C380.756 39.2959 378.196 39.9088 375.276 39.9088ZM375.276 33.69C377.295 33.69 378.845 32.9149 379.927 31.3647C381.044 29.7784 381.603 27.5793 381.603 24.7673C381.603 21.9553 381.044 19.7742 379.927 18.224C378.845 16.6377 377.295 15.8446 375.276 15.8446C373.257 15.8446 371.689 16.6377 370.572 18.224C369.454 19.7742 368.895 21.9553 368.895 24.7673C368.895 27.6153 369.454 29.8145 370.572 31.3647C371.689 32.9149 373.257 33.69 375.276 33.69ZM395.192 10.2747H402.492L402.817 18.7648L401.789 18.4944C402.186 15.43 403.213 13.1948 404.871 11.7888C406.566 10.3468 408.693 9.62578 411.253 9.62578C414.353 9.62578 416.768 10.6172 418.499 12.6C420.229 14.5468 421.095 17.2146 421.095 20.6034V39.2599H412.983V23.3072C412.983 20.8557 412.659 19.0351 412.01 17.8455C411.361 16.6558 410.207 16.0609 408.549 16.0609C406.854 16.0609 405.556 16.6918 404.655 17.9536C403.754 19.1793 403.303 20.9639 403.303 23.3072V39.2599H395.192V10.2747ZM424.761 10.2747H433.251L440.119 31.0943L446.986 10.2747H455.422L444.823 39.2599H435.36L424.761 10.2747ZM471.809 39.9088C468.889 39.9088 466.312 39.2959 464.076 38.0702C461.877 36.8084 460.183 35.0419 458.993 32.7707C457.803 30.4634 457.209 27.7956 457.209 24.7673C457.209 21.739 457.803 19.0892 458.993 16.818C460.183 14.5107 461.877 12.7442 464.076 11.5185C466.275 10.2567 468.835 9.62578 471.755 9.62578C474.603 9.62578 477.091 10.2567 479.218 11.5185C481.381 12.7803 483.039 14.6008 484.193 16.9802C485.347 19.3236 485.923 22.0995 485.923 25.3081V26.9304H465.59C465.663 29.1655 466.257 30.8599 467.375 32.0136C468.493 33.1672 470.025 33.744 471.972 33.744C473.341 33.744 474.477 33.4556 475.378 32.8788C476.316 32.302 476.983 31.4187 477.379 30.229L485.545 30.7157C484.752 33.5998 483.129 35.853 480.678 37.4753C478.262 39.0976 475.306 39.9088 471.809 39.9088ZM477.65 21.9553C477.541 19.9004 476.965 18.3321 475.919 17.2506C474.874 16.1691 473.486 15.6283 471.755 15.6283C470.025 15.6283 468.619 16.1871 467.537 17.3047C466.456 18.4223 465.807 19.9725 465.59 21.9553H477.65ZM491.146 10.2747H498.825L499.096 18.7107L498.501 18.5485C498.97 15.6283 499.799 13.5193 500.988 12.2215C502.178 10.9236 503.818 10.2747 505.909 10.2747H508.559V16.9802H505.909C504.359 16.9802 503.097 17.1965 502.124 17.6291C501.151 18.0257 500.43 18.6566 499.961 19.5218C499.492 20.3871 499.258 21.5407 499.258 22.9828V39.2599H491.146V10.2747ZM525.648 39.2599C522.656 39.2599 520.457 38.5749 519.051 37.205C517.645 35.799 516.942 33.5818 516.942 30.5535V3.46102H525.053V29.5801C525.053 30.9501 525.342 31.9054 525.919 32.4462C526.495 32.9509 527.397 33.2033 528.623 33.2033H532.678V39.2599H525.648ZM512.291 10.2747H532.678V16.3313H512.291V10.2747ZM1.24374 64.9564H16.1689C21.0359 64.9564 24.6951 65.8036 27.1465 67.498C29.6341 69.1924 30.8778 71.8241 30.8778 75.3932C30.8778 76.9795 30.5534 78.3674 29.9045 79.5571C29.2555 80.7108 28.3002 81.6301 27.0384 82.315C25.8126 83 24.3165 83.4146 22.55 83.5588V83.4507C25.7586 83.667 28.2101 84.5863 29.9045 86.2086C31.6349 87.8309 32.5001 90.012 32.5001 92.7519C32.5001 96.2849 31.2564 98.9347 28.7688 100.701C26.3174 102.468 22.7303 103.351 18.0076 103.351H1.24374V64.9564ZM17.629 96.6454C19.6479 96.6454 21.2522 96.2308 22.4419 95.4016C23.6315 94.5725 24.2264 93.3647 24.2264 91.7785C24.2264 90.1922 23.6315 88.9665 22.4419 88.1013C21.2522 87.236 19.6479 86.8034 17.629 86.8034H9.46342V96.6454H17.629ZM15.9526 80.855C18.0076 80.855 19.6299 80.4584 20.8196 79.6653C22.0092 78.8722 22.6041 77.7365 22.6041 76.2584C22.6041 74.6722 22.0273 73.5186 20.8736 72.7975C19.72 72.0405 18.0797 71.6619 15.9526 71.6619H9.46342V80.855H15.9526ZM51.9746 104C49.0544 104 46.4768 103.387 44.2416 102.161C42.0425 100.899 40.348 99.1329 39.1584 96.8617C37.9687 94.5544 37.3738 91.8866 37.3738 88.8583C37.3738 85.83 37.9687 83.1803 39.1584 80.909C40.348 78.6018 42.0425 76.8353 44.2416 75.6095C46.4407 74.3477 49.0003 73.7168 51.9205 73.7168C54.7685 73.7168 57.2561 74.3477 59.3831 75.6095C61.5462 76.8713 63.2045 78.6919 64.3582 81.0713C65.5118 83.4146 66.0886 86.1906 66.0886 89.3991V91.0214H45.7557C45.8278 93.2566 46.4227 94.951 47.5403 96.1046C48.6579 97.2583 50.19 97.8351 52.1368 97.8351C53.5067 97.8351 54.6424 97.5467 55.5436 96.9699C56.481 96.393 57.1479 95.5098 57.5445 94.3201L65.7101 94.8068C64.917 97.6909 63.2946 99.9441 60.8432 101.566C58.4277 103.189 55.4715 104 51.9746 104ZM57.8149 86.0463C57.7067 83.9914 57.1299 82.4232 56.0844 81.3417C55.0389 80.2601 53.6509 79.7194 51.9205 79.7194C50.19 79.7194 48.784 80.2782 47.7025 81.3957C46.621 82.5133 45.972 84.0635 45.7557 86.0463H57.8149ZM82.3662 103.351C79.3739 103.351 77.1748 102.666 75.7688 101.296C74.3628 99.89 73.6598 97.6729 73.6598 94.6446V67.5521H81.7713V93.6712C81.7713 95.0411 82.0597 95.9965 82.6365 96.5373C83.2134 97.042 84.1146 97.2943 85.3404 97.2943H89.3962V103.351H82.3662ZM69.0092 74.3658H89.3962V80.4224H69.0092V74.3658ZM92.0615 74.3658H100.227L105.256 93.9956L110.556 74.3658H117.207L122.561 93.9956L127.59 74.3658H135.756L127.157 103.351H119.262L113.909 85.2352L108.555 103.351H100.714L92.0615 74.3658ZM152.101 104C149.181 104 146.603 103.387 144.368 102.161C142.169 100.899 140.475 99.1329 139.285 96.8617C138.095 94.5544 137.5 91.8866 137.5 88.8583C137.5 85.83 138.095 83.1803 139.285 80.909C140.475 78.6018 142.169 76.8353 144.368 75.6095C146.567 74.3477 149.127 73.7168 152.047 73.7168C154.895 73.7168 157.383 74.3477 159.51 75.6095C161.673 76.8713 163.331 78.6919 164.485 81.0713C165.638 83.4146 166.215 86.1906 166.215 89.3991V91.0214H145.882C145.954 93.2566 146.549 94.951 147.667 96.1046C148.784 97.2583 150.317 97.8351 152.263 97.8351C153.633 97.8351 154.769 97.5467 155.67 96.9699C156.608 96.393 157.275 95.5098 157.671 94.3201L165.837 94.8068C165.044 97.6909 163.421 99.9441 160.97 101.566C158.554 103.189 155.598 104 152.101 104ZM157.941 86.0463C157.833 83.9914 157.257 82.4232 156.211 81.3417C155.166 80.2601 153.778 79.7194 152.047 79.7194C150.317 79.7194 148.911 80.2782 147.829 81.3957C146.748 82.5133 146.099 84.0635 145.882 86.0463H157.941ZM184.632 104C181.712 104 179.134 103.387 176.899 102.161C174.7 100.899 173.005 99.1329 171.816 96.8617C170.626 94.5544 170.031 91.8866 170.031 88.8583C170.031 85.83 170.626 83.1803 171.816 80.909C173.005 78.6018 174.7 76.8353 176.899 75.6095C179.098 74.3477 181.658 73.7168 184.578 73.7168C187.426 73.7168 189.913 74.3477 192.04 75.6095C194.203 76.8713 195.862 78.6919 197.015 81.0713C198.169 83.4146 198.746 86.1906 198.746 89.3991V91.0214H178.413C178.485 93.2566 179.08 94.951 180.197 96.1046C181.315 97.2583 182.847 97.8351 184.794 97.8351C186.164 97.8351 187.3 97.5467 188.201 96.9699C189.138 96.393 189.805 95.5098 190.202 94.3201L198.367 94.8068C197.574 97.6909 195.952 99.9441 193.5 101.566C191.085 103.189 188.129 104 184.632 104ZM190.472 86.0463C190.364 83.9914 189.787 82.4232 188.742 81.3417C187.696 80.2601 186.308 79.7194 184.578 79.7194C182.847 79.7194 181.441 80.2782 180.36 81.3957C179.278 82.5133 178.629 84.0635 178.413 86.0463H190.472ZM203.969 74.3658H211.269L211.594 82.8558L210.566 82.5854C210.963 79.5211 211.99 77.2859 213.649 75.8799C215.343 74.4379 217.47 73.7168 220.03 73.7168C223.13 73.7168 225.546 74.7082 227.276 76.6911C229.006 78.6378 229.872 81.3056 229.872 84.6944V103.351H221.76V87.3983C221.76 84.9468 221.436 83.1262 220.787 81.9365C220.138 80.7468 218.984 80.152 217.326 80.152C215.631 80.152 214.334 80.7829 213.432 82.0447C212.531 83.2704 212.08 85.0549 212.08 87.3983V103.351H203.969V74.3658ZM249.765 64.9564H276.262V71.8782H253.442L257.984 67.1735V84.7485L253.442 81.1794H275.289V87.9931H253.442L257.984 84.424V103.351H249.765V64.9564ZM282.021 74.3658H290.133V103.351H282.021V74.3658ZM281.859 64.3075H290.241V70.7967H281.859V64.3075ZM305.937 104C302.872 104 300.403 103.297 298.528 101.891C296.69 100.485 295.77 98.5561 295.77 96.1046C295.77 93.5811 296.545 91.6163 298.096 90.2103C299.646 88.8043 302.043 87.7768 305.288 87.1279L314.643 85.2893C314.643 83.4146 314.21 82.0086 313.345 81.0713C312.516 80.0979 311.29 79.6112 309.668 79.6112C308.154 79.6112 306.964 79.9717 306.099 80.6927C305.234 81.3777 304.657 82.4052 304.368 83.7751L296.257 83.3966C296.798 80.2241 298.222 77.8267 300.529 76.2044C302.836 74.546 305.883 73.7168 309.668 73.7168C313.994 73.7168 317.257 74.7443 319.456 76.7992C321.655 78.8541 322.755 81.8644 322.755 85.83V95.7261C322.755 96.5192 322.881 97.06 323.133 97.3484C323.385 97.6368 323.8 97.781 324.377 97.781H325.188V103.351C324.9 103.423 324.467 103.495 323.89 103.567C323.349 103.639 322.809 103.675 322.268 103.675C320.285 103.675 318.699 103.171 317.509 102.161C316.355 101.152 315.779 99.4214 315.779 96.9699L316.482 97.5106C315.941 99.4935 314.751 101.08 312.913 102.269C311.074 103.423 308.749 104 305.937 104ZM307.883 98.4299C309.217 98.4299 310.389 98.1776 311.398 97.6729C312.444 97.1321 313.237 96.357 313.778 95.3476C314.355 94.3381 314.643 93.1484 314.643 91.7785V90.3725L308.046 91.7785C306.712 92.0309 305.72 92.4635 305.071 93.0763C304.423 93.6532 304.098 94.4102 304.098 95.3476C304.098 96.357 304.404 97.1321 305.017 97.6729C305.666 98.1776 306.622 98.4299 307.883 98.4299ZM340.076 103.351C337.084 103.351 334.885 102.666 333.479 101.296C332.073 99.89 331.37 97.6729 331.37 94.6446V67.5521H339.481V93.6712C339.481 95.0411 339.77 95.9965 340.346 96.5373C340.923 97.042 341.825 97.2943 343.05 97.2943H347.106V103.351H340.076ZM326.719 74.3658H347.106V80.4224H326.719V74.3658ZM373.216 104C370.151 104 367.682 103.297 365.807 101.891C363.969 100.485 363.049 98.5561 363.049 96.1046C363.049 93.5811 363.825 91.6163 365.375 90.2103C366.925 88.8043 369.322 87.7768 372.567 87.1279L381.922 85.2893C381.922 83.4146 381.49 82.0086 380.624 81.0713C379.795 80.0979 378.569 79.6112 376.947 79.6112C375.433 79.6112 374.243 79.9717 373.378 80.6927C372.513 81.3777 371.936 82.4052 371.648 83.7751L363.536 83.3966C364.077 80.2241 365.501 77.8267 367.808 76.2044C370.115 74.546 373.162 73.7168 376.947 73.7168C381.273 73.7168 384.536 74.7443 386.735 76.7992C388.934 78.8541 390.034 81.8644 390.034 85.83V95.7261C390.034 96.5192 390.16 97.06 390.412 97.3484C390.665 97.6368 391.079 97.781 391.656 97.781H392.467V103.351C392.179 103.423 391.746 103.495 391.169 103.567C390.629 103.639 390.088 103.675 389.547 103.675C387.564 103.675 385.978 103.171 384.788 102.161C383.635 101.152 383.058 99.4214 383.058 96.9699L383.761 97.5106C383.22 99.4935 382.03 101.08 380.192 102.269C378.353 103.423 376.028 104 373.216 104ZM375.163 98.4299C376.497 98.4299 377.668 98.1776 378.678 97.6729C379.723 97.1321 380.516 96.357 381.057 95.3476C381.634 94.3381 381.922 93.1484 381.922 91.7785V90.3725L375.325 91.7785C373.991 92.0309 373 92.4635 372.351 93.0763C371.702 93.6532 371.377 94.4102 371.377 95.3476C371.377 96.357 371.684 97.1321 372.297 97.6729C372.945 98.1776 373.901 98.4299 375.163 98.4299ZM397.41 74.3658H404.71L405.035 82.8558L404.007 82.5854C404.404 79.5211 405.431 77.2859 407.089 75.8799C408.784 74.4379 410.911 73.7168 413.471 73.7168C416.571 73.7168 418.986 74.7082 420.717 76.6911C422.447 78.6378 423.313 81.3056 423.313 84.6944V103.351H415.201V87.3983C415.201 84.9468 414.877 83.1262 414.228 81.9365C413.579 80.7468 412.425 80.152 410.767 80.152C409.072 80.152 407.774 80.7829 406.873 82.0447C405.972 83.2704 405.521 85.0549 405.521 87.3983V103.351H397.41V74.3658ZM440.165 104C437.785 104 435.694 103.387 433.892 102.161C432.089 100.899 430.701 99.1329 429.728 96.8617C428.79 94.5905 428.322 91.9227 428.322 88.8583C428.322 85.794 428.809 83.1262 429.782 80.855C430.755 78.5837 432.125 76.8353 433.892 75.6095C435.694 74.3477 437.785 73.7168 440.165 73.7168C442.22 73.7168 443.986 74.1494 445.464 75.0147C446.978 75.8439 448.132 76.9975 448.925 78.4756V64.9564H457.037V103.351H449.25L449.087 99.0789C448.294 100.629 447.105 101.837 445.518 102.702C443.968 103.567 442.184 104 440.165 104ZM442.868 97.781C444.166 97.781 445.266 97.4385 446.167 96.7536C447.068 96.0686 447.753 95.0772 448.222 93.7793C448.691 92.4454 448.925 90.8051 448.925 88.8583C448.925 86.9116 448.691 85.2712 448.222 83.9374C447.753 82.6035 447.068 81.612 446.167 80.9631C445.266 80.2782 444.166 79.9357 442.868 79.9357C440.958 79.9357 439.444 80.7468 438.326 82.3691C437.208 83.9554 436.65 86.1185 436.65 88.8583C436.65 91.5622 437.208 93.7253 438.326 95.3476C439.48 96.9699 440.994 97.781 442.868 97.781ZM493.121 104.216C489.624 104.216 486.506 103.423 483.766 101.837C481.026 100.251 478.899 97.9433 477.385 94.9149C475.871 91.8866 475.113 88.3176 475.113 84.2077C475.113 80.17 475.853 76.637 477.331 73.6087C478.809 70.5443 480.918 68.201 483.658 66.5787C486.398 64.9203 489.588 64.0912 493.229 64.0912C498.168 64.0912 502.044 65.2989 504.856 67.7143C507.668 70.1297 509.506 73.6808 510.372 78.3674L501.827 78.6919C501.359 76.2404 500.385 74.3477 498.907 73.0138C497.465 71.6799 495.573 71.013 493.229 71.013C491.21 71.013 489.48 71.5538 488.038 72.6353C486.596 73.7168 485.478 75.249 484.685 77.2318C483.928 79.2146 483.549 81.5399 483.549 84.2077C483.549 86.9116 483.928 89.2549 484.685 91.2377C485.478 93.1845 486.596 94.6806 488.038 95.7261C489.516 96.7716 491.228 97.2943 493.175 97.2943C495.735 97.2943 497.736 96.5913 499.178 95.1853C500.62 93.7433 501.539 91.6884 501.936 89.0206L510.534 89.345C509.741 94.1038 507.866 97.781 504.91 100.377C501.954 102.936 498.024 104.216 493.121 104.216ZM516.02 74.3658H523.699L523.969 82.8017L523.374 82.6395C523.843 79.7194 524.672 77.6104 525.862 76.3125C527.051 75.0147 528.692 74.3658 530.783 74.3658H533.432V81.0713H530.783C529.232 81.0713 527.971 81.2876 526.997 81.7202C526.024 82.1168 525.303 82.7477 524.834 83.6129C524.366 84.4781 524.131 85.6318 524.131 87.0738V103.351H516.02V74.3658ZM541.531 105.406H545.37C546.272 105.406 546.939 105.262 547.371 104.973C547.84 104.721 548.2 104.252 548.453 103.567L549.102 101.891H546.884L536.664 74.3658H544.992L551.589 94.3201L557.862 74.3658H566.136L554.996 106.109C554.311 108.02 553.356 109.39 552.13 110.219C550.94 111.048 549.246 111.462 547.047 111.462H541.531V105.406ZM570.836 74.3658H578.623L578.785 80.4764L578.136 80.2061C578.821 78.1511 579.975 76.5649 581.597 75.4473C583.255 74.2937 585.166 73.7168 587.329 73.7168C589.961 73.7168 592.196 74.3838 594.035 75.7177C595.873 77.0155 597.243 78.8181 598.145 81.1254C599.082 83.3966 599.551 85.9742 599.551 88.8583C599.551 91.7424 599.082 94.3381 598.145 96.6454C597.207 98.9166 595.819 100.719 593.981 102.053C592.142 103.351 589.907 104 587.275 104C585.869 104 584.553 103.747 583.328 103.243C582.102 102.702 581.038 101.963 580.137 101.026C579.272 100.088 578.641 98.9707 578.244 97.6729L578.947 97.2403V111.462H570.836V74.3658ZM585.058 97.781C586.969 97.781 588.465 96.9879 589.546 95.4016C590.664 93.8154 591.223 91.6343 591.223 88.8583C591.223 86.0824 590.664 83.9013 589.546 82.315C588.465 80.7288 586.969 79.9357 585.058 79.9357C583.796 79.9357 582.697 80.2782 581.759 80.9631C580.858 81.6481 580.155 82.6575 579.65 83.9914C579.182 85.2893 578.947 86.9116 578.947 88.8583C578.947 90.8051 579.182 92.4454 579.65 93.7793C580.155 95.0772 580.858 96.0686 581.759 96.7536C582.661 97.4385 583.76 97.781 585.058 97.781ZM615.794 103.351C612.802 103.351 610.603 102.666 609.197 101.296C607.791 99.89 607.088 97.6729 607.088 94.6446V67.5521H615.199V93.6712C615.199 95.0411 615.488 95.9965 616.064 96.5373C616.641 97.042 617.542 97.2943 618.768 97.2943H622.824V103.351H615.794ZM602.437 74.3658H622.824V80.4224H602.437V74.3658ZM640.591 104C637.635 104 635.039 103.387 632.804 102.161C630.605 100.899 628.892 99.1329 627.666 96.8617C626.477 94.5544 625.882 91.8866 625.882 88.8583C625.882 85.83 626.477 83.1803 627.666 80.909C628.892 78.6018 630.605 76.8353 632.804 75.6095C635.039 74.3477 637.635 73.7168 640.591 73.7168C643.511 73.7168 646.07 74.3477 648.27 75.6095C650.505 76.8353 652.235 78.6018 653.461 80.909C654.687 83.1803 655.3 85.83 655.3 88.8583C655.3 91.8866 654.687 94.5544 653.461 96.8617C652.235 99.1329 650.505 100.899 648.27 102.161C646.07 103.387 643.511 104 640.591 104ZM640.591 97.781C642.61 97.781 644.16 97.0059 645.241 95.4557C646.359 93.8695 646.918 91.6703 646.918 88.8583C646.918 86.0463 646.359 83.8652 645.241 82.315C644.16 80.7288 642.61 79.9357 640.591 79.9357C638.572 79.9357 637.004 80.7288 635.886 82.315C634.768 83.8652 634.21 86.0463 634.21 88.8583C634.21 91.7064 634.768 93.9055 635.886 95.4557C637.004 97.0059 638.572 97.781 640.591 97.781ZM671.826 84.2618H700V90.8592H671.826V84.2618Z" fill="url(#paint0_linear_14822_7236)"/>
<path d="M1.24374 129.047H27.7414V135.969H4.92096L9.46342 131.265V148.84L4.92096 145.27H26.768V152.084H4.92096L9.46342 148.515V167.442H1.24374V129.047ZM42.2065 168.091C39.1422 168.091 36.6727 167.388 34.798 165.982C32.9594 164.576 32.0401 162.647 32.0401 160.196C32.0401 157.672 32.8152 155.707 34.3654 154.301C35.9156 152.895 38.313 151.868 41.5576 151.219L50.9129 149.38C50.9129 147.506 50.4803 146.1 49.615 145.162C48.7859 144.189 47.5601 143.702 45.9378 143.702C44.4237 143.702 43.234 144.063 42.3687 144.784C41.5035 145.469 40.9267 146.496 40.6383 147.866L32.5268 147.488C33.0675 144.315 34.4916 141.918 36.7988 140.295C39.1061 138.637 42.1524 137.808 45.9378 137.808C50.264 137.808 53.5266 138.835 55.7257 140.89C57.9248 142.945 59.0244 145.955 59.0244 149.921V159.817C59.0244 160.61 59.1506 161.151 59.4029 161.439C59.6553 161.728 60.0699 161.872 60.6467 161.872H61.4579V167.442C61.1695 167.514 60.7368 167.586 60.16 167.658C59.6193 167.73 59.0785 167.766 58.5377 167.766C56.5549 167.766 54.9686 167.262 53.779 166.252C52.6253 165.243 52.0485 163.512 52.0485 161.061L52.7515 161.602C52.2107 163.585 51.021 165.171 49.1824 166.36C47.3438 167.514 45.0185 168.091 42.2065 168.091ZM44.1533 162.521C45.4872 162.521 46.6588 162.269 47.6683 161.764C48.7138 161.223 49.5069 160.448 50.0477 159.439C50.6245 158.429 50.9129 157.239 50.9129 155.87V154.464L44.3155 155.87C42.9816 156.122 41.9902 156.555 41.3413 157.167C40.6924 157.744 40.3679 158.501 40.3679 159.439C40.3679 160.448 40.6743 161.223 41.2872 161.764C41.9361 162.269 42.8915 162.521 44.1533 162.521ZM78.574 168.091C75.6899 168.091 73.2204 167.676 71.1655 166.847C69.1106 166.018 67.5424 164.882 66.4608 163.44C65.4153 161.962 64.8205 160.25 64.6763 158.303L72.896 158.033C73.1483 159.439 73.7251 160.52 74.6264 161.277C75.5637 161.998 76.8976 162.359 78.6281 162.359C80.1062 162.359 81.2418 162.124 82.0349 161.656C82.8281 161.151 83.2246 160.43 83.2246 159.493C83.2246 158.844 83.0624 158.321 82.7379 157.924C82.4495 157.528 81.8727 157.185 81.0075 156.897C80.1783 156.573 78.9526 156.284 77.3303 156.032C74.2659 155.527 71.8685 154.914 70.138 154.193C68.4076 153.436 67.1818 152.499 66.4608 151.381C65.7398 150.228 65.3793 148.804 65.3793 147.109C65.3793 144.261 66.4788 142.008 68.678 140.349C70.8771 138.655 74.0676 137.808 78.2496 137.808C82.1791 137.808 85.2435 138.709 87.4426 140.512C89.6778 142.314 90.9756 144.73 91.3362 147.758L83.2246 148.082C83.0444 146.676 82.5036 145.577 81.6023 144.784C80.7371 143.955 79.5835 143.54 78.1414 143.54C76.7354 143.54 75.6359 143.846 74.8427 144.459C74.0856 145.036 73.7071 145.811 73.7071 146.785C73.7071 147.506 73.8693 148.101 74.1938 148.569C74.5543 149.002 75.1131 149.362 75.8702 149.651C76.6633 149.939 77.7448 150.173 79.1148 150.354C82.2152 150.822 84.6667 151.435 86.4692 152.192C88.2718 152.913 89.5696 153.851 90.3628 155.004C91.1559 156.158 91.5525 157.6 91.5525 159.33C91.5525 162.106 90.3808 164.269 88.0375 165.82C85.7302 167.334 82.5757 168.091 78.574 168.091ZM107.82 167.442C104.828 167.442 102.629 166.757 101.223 165.387C99.8169 163.981 99.1139 161.764 99.1139 158.736V131.643H107.225V157.762C107.225 159.132 107.514 160.088 108.091 160.628C108.667 161.133 109.569 161.385 110.795 161.385H114.85V167.442H107.82ZM94.4633 138.457H114.85V144.513H94.4633V138.457ZM123.747 167.442H120.232V159.168H128.992V166.577L125.261 175.986H120.827L123.747 167.442ZM162.508 168.307C159.263 168.307 156.433 167.748 154.018 166.631C151.638 165.513 149.782 163.945 148.448 161.926C147.114 159.907 146.357 157.528 146.176 154.788L154.45 154.409C154.63 155.924 155.063 157.221 155.748 158.303C156.433 159.348 157.334 160.142 158.452 160.682C159.605 161.223 160.993 161.494 162.616 161.494C164.707 161.494 166.293 161.115 167.375 160.358C168.492 159.601 169.051 158.501 169.051 157.059C169.051 156.122 168.835 155.329 168.402 154.68C167.969 153.995 167.122 153.382 165.86 152.841C164.635 152.3 162.85 151.76 160.507 151.219C157.118 150.462 154.45 149.615 152.503 148.677C150.593 147.74 149.169 146.568 148.231 145.162C147.33 143.756 146.879 141.954 146.879 139.755C146.879 137.483 147.456 135.483 148.61 133.752C149.763 131.986 151.422 130.616 153.585 129.642C155.748 128.669 158.308 128.182 161.264 128.182C164.364 128.182 167.014 128.741 169.213 129.859C171.448 130.94 173.197 132.454 174.459 134.401C175.72 136.348 176.495 138.601 176.784 141.161L168.564 141.593C168.42 140.259 168.041 139.106 167.429 138.132C166.816 137.123 165.969 136.348 164.887 135.807C163.841 135.266 162.598 134.996 161.156 134.996C159.317 134.996 157.857 135.41 156.775 136.24C155.73 137.069 155.207 138.15 155.207 139.484C155.207 140.458 155.442 141.251 155.91 141.864C156.379 142.477 157.172 143.017 158.29 143.486C159.407 143.955 161.048 144.405 163.211 144.838C166.708 145.559 169.484 146.46 171.538 147.542C173.629 148.623 175.126 149.921 176.027 151.435C176.928 152.913 177.379 154.662 177.379 156.681C177.379 159.06 176.766 161.133 175.54 162.9C174.35 164.63 172.638 165.964 170.403 166.901C168.168 167.839 165.536 168.307 162.508 168.307ZM182.528 138.457H190.64V167.442H182.528V138.457ZM182.366 128.399H190.748V134.888H182.366V128.399ZM197.051 138.457H204.351L204.622 145.433L203.865 145.108C204.261 143.594 204.856 142.296 205.649 141.215C206.478 140.097 207.47 139.25 208.623 138.673C209.777 138.096 211.039 137.808 212.409 137.808C214.788 137.808 216.735 138.511 218.249 139.917C219.763 141.287 220.737 143.18 221.169 145.595L220.142 145.649C220.646 143.125 221.656 141.197 223.17 139.863C224.72 138.493 226.613 137.808 228.848 137.808C230.831 137.808 232.561 138.222 234.039 139.052C235.518 139.881 236.635 141.125 237.392 142.783C238.185 144.441 238.582 146.442 238.582 148.785V167.442H230.47V151.057C230.47 148.749 230.11 147.037 229.389 145.919C228.704 144.802 227.604 144.243 226.09 144.243C225.117 144.243 224.288 144.513 223.603 145.054C222.918 145.595 222.377 146.388 221.98 147.434C221.62 148.479 221.44 149.723 221.44 151.165V167.442H214.139V151.165C214.139 148.858 213.797 147.127 213.112 145.973C212.463 144.82 211.363 144.243 209.813 144.243C208.84 144.243 207.992 144.513 207.271 145.054C206.586 145.595 206.064 146.388 205.703 147.434C205.343 148.479 205.162 149.723 205.162 151.165V167.442H197.051V138.457ZM244.843 138.457H252.63L252.793 144.567L252.144 144.297C252.829 142.242 253.982 140.656 255.605 139.538C257.263 138.385 259.174 137.808 261.337 137.808C263.969 137.808 266.204 138.475 268.042 139.809C269.881 141.107 271.251 142.909 272.152 145.216C273.09 147.488 273.558 150.065 273.558 152.949C273.558 155.833 273.09 158.429 272.152 160.736C271.215 163.008 269.827 164.81 267.988 166.144C266.15 167.442 263.914 168.091 261.283 168.091C259.877 168.091 258.561 167.839 257.335 167.334C256.109 166.793 255.046 166.054 254.145 165.117C253.279 164.179 252.648 163.062 252.252 161.764L252.955 161.331V175.554H244.843V138.457ZM259.066 161.872C260.976 161.872 262.472 161.079 263.554 159.493C264.672 157.906 265.23 155.725 265.23 152.949C265.23 150.173 264.672 147.992 263.554 146.406C262.472 144.82 260.976 144.027 259.066 144.027C257.804 144.027 256.704 144.369 255.767 145.054C254.866 145.739 254.163 146.749 253.658 148.082C253.189 149.38 252.955 151.003 252.955 152.949C252.955 154.896 253.189 156.536 253.658 157.87C254.163 159.168 254.866 160.16 255.767 160.845C256.668 161.53 257.768 161.872 259.066 161.872ZM286.529 167.442C284.078 167.442 282.203 166.829 280.905 165.603C279.607 164.378 278.958 162.467 278.958 159.871V129.047H287.07V159.006C287.07 159.871 287.268 160.484 287.665 160.845C288.061 161.205 288.638 161.385 289.395 161.385H291.342V167.442H286.529ZM309.42 168.091C306.5 168.091 303.923 167.478 301.687 166.252C299.488 164.991 297.794 163.224 296.604 160.953C295.415 158.645 294.82 155.978 294.82 152.949C294.82 149.921 295.415 147.271 296.604 145C297.794 142.693 299.488 140.926 301.687 139.701C303.887 138.439 306.446 137.808 309.366 137.808C312.214 137.808 314.702 138.439 316.829 139.701C318.992 140.962 320.65 142.783 321.804 145.162C322.958 147.506 323.534 150.282 323.534 153.49V155.112H303.202C303.274 157.348 303.869 159.042 304.986 160.196C306.104 161.349 307.636 161.926 309.583 161.926C310.953 161.926 312.088 161.638 312.989 161.061C313.927 160.484 314.594 159.601 314.99 158.411L323.156 158.898C322.363 161.782 320.74 164.035 318.289 165.657C315.874 167.28 312.917 168.091 309.42 168.091ZM315.261 150.137C315.153 148.082 314.576 146.514 313.53 145.433C312.485 144.351 311.097 143.81 309.366 143.81C307.636 143.81 306.23 144.369 305.148 145.487C304.067 146.604 303.418 148.155 303.202 150.137H315.261ZM331.288 167.442H327.773V159.168H336.533V166.577L332.802 175.986H328.368L331.288 167.442ZM370.049 168.307C366.804 168.307 363.974 167.748 361.558 166.631C359.179 165.513 357.322 163.945 355.989 161.926C354.655 159.907 353.898 157.528 353.717 154.788L361.991 154.409C362.171 155.924 362.604 157.221 363.289 158.303C363.974 159.348 364.875 160.142 365.993 160.682C367.146 161.223 368.534 161.494 370.157 161.494C372.248 161.494 373.834 161.115 374.915 160.358C376.033 159.601 376.592 158.501 376.592 157.059C376.592 156.122 376.376 155.329 375.943 154.68C375.51 153.995 374.663 153.382 373.401 152.841C372.176 152.3 370.391 151.76 368.048 151.219C364.659 150.462 361.991 149.615 360.044 148.677C358.134 147.74 356.71 146.568 355.772 145.162C354.871 143.756 354.42 141.954 354.42 139.755C354.42 137.483 354.997 135.483 356.151 133.752C357.304 131.986 358.963 130.616 361.126 129.642C363.289 128.669 365.849 128.182 368.805 128.182C371.905 128.182 374.555 128.741 376.754 129.859C378.989 130.94 380.738 132.454 382 134.401C383.261 136.348 384.036 138.601 384.325 141.161L376.105 141.593C375.961 140.259 375.582 139.106 374.97 138.132C374.357 137.123 373.509 136.348 372.428 135.807C371.382 135.266 370.139 134.996 368.697 134.996C366.858 134.996 365.398 135.41 364.316 136.24C363.271 137.069 362.748 138.15 362.748 139.484C362.748 140.458 362.983 141.251 363.451 141.864C363.92 142.477 364.713 143.017 365.831 143.486C366.948 143.955 368.588 144.405 370.752 144.838C374.249 145.559 377.024 146.46 379.079 147.542C381.17 148.623 382.666 149.921 383.568 151.435C384.469 152.913 384.92 154.662 384.92 156.681C384.92 159.06 384.307 161.133 383.081 162.9C381.891 164.63 380.179 165.964 377.944 166.901C375.709 167.839 373.077 168.307 370.049 168.307ZM404.372 168.091C401.452 168.091 398.874 167.478 396.639 166.252C394.44 164.991 392.745 163.224 391.555 160.953C390.366 158.645 389.771 155.978 389.771 152.949C389.771 149.921 390.366 147.271 391.555 145C392.745 142.693 394.44 140.926 396.639 139.701C398.838 138.439 401.397 137.808 404.318 137.808C407.166 137.808 409.653 138.439 411.78 139.701C413.943 140.962 415.602 142.783 416.755 145.162C417.909 147.506 418.486 150.282 418.486 153.49V155.112H398.153C398.225 157.348 398.82 159.042 399.937 160.196C401.055 161.349 402.587 161.926 404.534 161.926C405.904 161.926 407.039 161.638 407.941 161.061C408.878 160.484 409.545 159.601 409.942 158.411L418.107 158.898C417.314 161.782 415.692 164.035 413.24 165.657C410.825 167.28 407.869 168.091 404.372 168.091ZM410.212 150.137C410.104 148.082 409.527 146.514 408.482 145.433C407.436 144.351 406.048 143.81 404.318 143.81C402.587 143.81 401.181 144.369 400.1 145.487C399.018 146.604 398.369 148.155 398.153 150.137H410.212ZM437.01 168.091C434.09 168.091 431.513 167.478 429.277 166.252C427.042 164.991 425.312 163.224 424.086 160.953C422.896 158.645 422.302 155.978 422.302 152.949C422.302 149.921 422.896 147.271 424.086 145C425.312 142.693 427.042 140.926 429.277 139.701C431.513 138.439 434.09 137.808 437.01 137.808C439.57 137.808 441.859 138.259 443.878 139.16C445.933 140.061 447.591 141.377 448.853 143.107C450.115 144.802 450.89 146.821 451.179 149.164L442.797 149.543C442.544 147.776 441.913 146.424 440.904 145.487C439.895 144.549 438.597 144.081 437.01 144.081C434.992 144.081 433.423 144.856 432.306 146.406C431.188 147.956 430.629 150.137 430.629 152.949C430.629 155.797 431.188 157.997 432.306 159.547C433.423 161.097 434.992 161.872 437.01 161.872C438.597 161.872 439.895 161.385 440.904 160.412C441.949 159.439 442.58 157.997 442.797 156.086L451.179 156.41C450.89 158.754 450.115 160.809 448.853 162.575C447.628 164.342 445.987 165.712 443.932 166.685C441.913 167.622 439.606 168.091 437.01 168.091ZM465.176 168.091C462.184 168.091 459.84 167.136 458.146 165.225C456.488 163.314 455.659 160.61 455.659 157.113V138.457H463.77V155.221C463.77 157.456 464.113 159.096 464.797 160.142C465.482 161.151 466.564 161.656 468.042 161.656C469.7 161.656 470.98 161.079 471.882 159.925C472.819 158.772 473.288 157.077 473.288 154.842V138.457H481.399V167.442H473.991L473.774 159.114L474.802 159.33C474.369 162.215 473.342 164.396 471.719 165.874C470.097 167.352 467.916 168.091 465.176 168.091ZM488.506 138.457H496.185L496.455 146.893L495.86 146.731C496.329 143.81 497.158 141.701 498.348 140.404C499.538 139.106 501.178 138.457 503.269 138.457H505.919V145.162H503.269C501.719 145.162 500.457 145.379 499.484 145.811C498.51 146.208 497.789 146.839 497.32 147.704C496.852 148.569 496.617 149.723 496.617 151.165V167.442H488.506V138.457ZM522.77 168.091C519.85 168.091 517.273 167.478 515.037 166.252C512.838 164.991 511.144 163.224 509.954 160.953C508.764 158.645 508.17 155.978 508.17 152.949C508.17 149.921 508.764 147.271 509.954 145C511.144 142.693 512.838 140.926 515.037 139.701C517.237 138.439 519.796 137.808 522.716 137.808C525.564 137.808 528.052 138.439 530.179 139.701C532.342 140.962 534 142.783 535.154 145.162C536.308 147.506 536.884 150.282 536.884 153.49V155.112H516.552C516.624 157.348 517.219 159.042 518.336 160.196C519.454 161.349 520.986 161.926 522.933 161.926C524.303 161.926 525.438 161.638 526.339 161.061C527.277 160.484 527.944 159.601 528.34 158.411L536.506 158.898C535.713 161.782 534.09 164.035 531.639 165.657C529.224 167.28 526.267 168.091 522.77 168.091ZM528.611 150.137C528.503 148.082 527.926 146.514 526.88 145.433C525.835 144.351 524.447 143.81 522.716 143.81C520.986 143.81 519.58 144.369 518.498 145.487C517.417 146.604 516.768 148.155 516.552 150.137H528.611Z" fill="#F5BB00"/>
<defs>
<linearGradient id="paint0_linear_14822_7236" x1="44.8696" y1="10.0365" x2="489.548" y2="408.506" gradientUnits="userSpaceOnUse">
<stop stopColor="white"/>
<stop offset="1" stopColor="#F6F7F8"/>
</linearGradient>
</defs>
</svg>
