<svg width="8" height="11" viewBox="0 0 8 11" fill="none" xmlns="http://www.w3.org/2000/svg">
<path fillRule="evenodd" clipRule="evenodd" d="M7.97918 4.25704C8.14537 3.14437 7.2982 2.54623 6.1398 2.14721L6.51557 0.639955L5.59784 0.411306L5.232 1.87884C4.99107 1.81874 4.74335 1.76203 4.49719 1.70585L4.86564 0.228649L3.94869 0L3.57267 1.50673C3.37302 1.46126 3.17704 1.41631 2.9868 1.36902L2.98785 1.36431L1.72257 1.04839L1.47851 2.02831C1.47851 2.02831 2.15923 2.18431 2.14485 2.19398C2.51644 2.28675 2.58386 2.53264 2.57236 2.72758L2.14433 4.44467C2.16994 4.4512 2.20313 4.46061 2.23971 4.47524L2.14302 4.4512L1.54279 6.85658C1.49732 6.96947 1.38208 7.1388 1.12234 7.07452C1.13148 7.08784 0.455468 6.90806 0.455468 6.90806L0 7.95854L1.1942 8.25617C1.32902 8.28996 1.4622 8.3247 1.59392 8.35907L1.59402 8.35909C1.67928 8.38134 1.76392 8.40342 1.848 8.42498L1.46832 9.94974L2.38474 10.1784L2.76103 8.67009C3.0111 8.73803 3.25413 8.80075 3.49192 8.8598L3.1172 10.361L4.03467 10.5897L4.41435 9.06807C5.97883 9.36414 7.15552 9.24472 7.65019 7.82997C8.04921 6.69065 7.63059 6.03345 6.80745 5.60463C7.4069 5.46588 7.85845 5.07156 7.97892 4.25704H7.97918ZM5.88267 7.19655C5.62221 8.24223 3.9851 7.80956 3.23671 7.61178L3.23665 7.61176C3.16966 7.59406 3.10979 7.57823 3.05866 7.56552L3.56247 5.54584C3.62498 5.56144 3.70134 5.57857 3.78784 5.59798C4.56208 5.77172 6.14877 6.12777 5.88293 7.19655H5.88267ZM3.94347 4.66077C4.56792 4.82737 5.92907 5.1905 6.16619 4.24058C6.40861 3.26878 5.08503 2.97588 4.43861 2.83283C4.36594 2.81674 4.30183 2.80256 4.24947 2.78951L3.79269 4.62131C3.83591 4.63208 3.88664 4.64561 3.94347 4.66077Z" fill="white"/>
</svg>
