<svg width="24" height="24" viewBox="0 0 24 24" fill="none" xmlns="http://www.w3.org/2000/svg">
<rect width="24" height="24" rx="12" fill="#0A0E12"/>
<rect x="0.2" y="0.2" width="23.6" height="23.6" rx="11.8" stroke="#9648FD" stroke-opacity="0.5" stroke-width="0.4"/>
<path d="M18.219 15.134L16.1441 17.2846C16.099 17.3313 16.0445 17.3686 15.9838 17.394C15.9232 17.4195 15.8577 17.4326 15.7916 17.4326H5.95572C5.90879 17.4326 5.86288 17.4193 5.82363 17.3944C5.78439 17.3696 5.75351 17.3341 5.73481 17.2925C5.7161 17.251 5.71037 17.205 5.71833 17.1603C5.72629 17.1156 5.74759 17.0741 5.77961 17.0409L7.85605 14.8903C7.90103 14.8437 7.95543 14.8066 8.01587 14.7811C8.07633 14.7557 8.14154 14.7425 8.20748 14.7424H18.0429C18.0898 14.7424 18.1357 14.7556 18.175 14.7805C18.2142 14.8054 18.245 14.8408 18.2638 14.8824C18.2825 14.924 18.2882 14.97 18.2802 15.0147C18.2723 15.0594 18.251 15.1008 18.219 15.134ZM16.1441 10.8033C16.099 10.7566 16.0445 10.7194 15.9838 10.6939C15.9232 10.6685 15.8577 10.6553 15.7916 10.6554H5.95572C5.90879 10.6554 5.86288 10.6686 5.82363 10.6935C5.78439 10.7184 5.75351 10.7538 5.73481 10.7954C5.7161 10.837 5.71037 10.883 5.71833 10.9277C5.72629 10.9723 5.74759 11.0138 5.77961 11.047L7.85605 13.1976C7.90103 13.2442 7.95543 13.2813 8.01587 13.3068C8.07633 13.3322 8.14154 13.3454 8.20748 13.3455H18.0429C18.0898 13.3455 18.1357 13.3323 18.175 13.3074C18.2142 13.2825 18.245 13.2471 18.2638 13.2055C18.2825 13.1639 18.2882 13.118 18.2802 13.0733C18.2723 13.0286 18.251 12.9871 18.219 12.9539L16.1441 10.8033ZM5.95572 9.25854H15.7916C15.8577 9.25857 15.9232 9.24546 15.9838 9.22C16.0445 9.19454 16.099 9.1573 16.1441 9.11058L18.219 6.95999C18.251 6.92682 18.2723 6.88534 18.2802 6.84064C18.2882 6.79594 18.2825 6.74997 18.2638 6.70837C18.245 6.66677 18.2142 6.63136 18.175 6.60649C18.1357 6.58161 18.0898 6.56836 18.0429 6.56836H8.20748C8.14154 6.56847 8.07633 6.58166 8.01587 6.60711C7.95543 6.63256 7.90103 6.66973 7.85605 6.71632L5.78014 8.86691C5.74816 8.90004 5.72687 8.94148 5.71889 8.98612C5.71091 9.03078 5.71659 9.07672 5.73523 9.1183C5.75388 9.15988 5.78467 9.19529 5.82383 9.2202C5.863 9.24511 5.90884 9.25843 5.95572 9.25854Z" fill="url(#paint0_linear_14829_8026)"/>
<defs>
<linearGradient id="paint0_linear_14829_8026" x1="6.7758" y1="17.6915" x2="16.6983" y2="6.11776" gradientUnits="userSpaceOnUse">
<stop offset="0.08" stop-color="#9945FF"/>
<stop offset="0.3" stop-color="#8752F3"/>
<stop offset="0.5" stop-color="#5497D5"/>
<stop offset="0.6" stop-color="#43B4CA"/>
<stop offset="0.72" stop-color="#28E0B9"/>
<stop offset="0.97" stop-color="#19FB9B"/>
</linearGradient>
</defs>
</svg>
