<svg width="24" height="24" viewBox="0 0 24 24" fill="none" xmlns="http://www.w3.org/2000/svg">
<g clip-path="url(#clip0_14822_7451)">
<path d="M22.16 5.65605C21.3966 5.99374 20.587 6.21552 19.758 6.31405C20.6318 5.79148 21.2857 4.96906 21.598 4.00005C20.778 4.48805 19.879 4.83005 18.942 5.01505C18.3126 4.34163 17.4784 3.89501 16.569 3.74463C15.6596 3.59425 14.726 3.74854 13.9133 4.1835C13.1006 4.61846 12.4544 5.30973 12.0752 6.14984C11.6959 6.98995 11.6048 7.93183 11.816 8.82905C10.1531 8.7457 8.52637 8.31357 7.04133 7.56071C5.55628 6.80785 4.24617 5.7511 3.19604 4.45905C2.82433 5.0975 2.62899 5.82327 2.63004 6.56205C2.63004 8.01205 3.36804 9.29305 4.49004 10.043C3.82605 10.0221 3.17667 9.84283 2.59604 9.52005V9.57205C2.59624 10.5377 2.93041 11.4737 3.54189 12.2211C4.15336 12.9686 5.00452 13.4815 5.95104 13.673C5.33465 13.8401 4.68835 13.8647 4.06104 13.745C4.32791 14.5763 4.84805 15.3032 5.54863 15.8242C6.24922 16.3451 7.09517 16.6338 7.96804 16.65C7.10052 17.3314 6.10722 17.835 5.04492 18.1322C3.98262 18.4294 2.87217 18.5143 1.77704 18.382C3.68874 19.6115 5.91413 20.2642 8.18704 20.262C15.88 20.262 20.087 13.889 20.087 8.36205C20.087 8.18205 20.082 8.00005 20.074 7.82205C20.8929 7.23022 21.5996 6.49707 22.161 5.65705L22.16 5.65605Z" fill="white"/>
</g>
<defs>
<clipPath id="clip0_14822_7451">
<rect width="24" height="24" rx="12" fill="white"/>
</clipPath>
</defs>
</svg>
